<svg class="main-svg" xmlns="http://www.w3.org/2000/svg" xmlns:xlink="http://www.w3.org/1999/xlink" width="700" height="450" style="" viewBox="0 0 700 450"><rect x="0" y="0" width="700" height="450" style="fill: rgb(255, 255, 255); fill-opacity: 1;"/><defs id="defs-21a01d"><g class="clips"><clipPath id="clip21a01dxyplot" class="plotclip"><rect width="544" height="330"/></clipPath><clipPath class="axesclip" id="clip21a01dx"><rect x="60" y="0" width="544" height="450"/></clipPath><clipPath class="axesclip" id="clip21a01dy"><rect x="0" y="60" width="700" height="330"/></clipPath><clipPath class="axesclip" id="clip21a01dxy"><rect x="60" y="60" width="544" height="330"/></clipPath></g><g class="gradients"/></defs><g class="bglayer"/><g class="layer-below"><g class="imagelayer"/><g class="shapelayer"/></g><g class="cartesianlayer"><g class="subplot xy"><g class="layer-subplot"><g class="shapelayer"/><g class="imagelayer"/></g><g class="gridlayer"><g class="x"><path class="xgrid crisp" transform="translate(219.81,0)" d="M0,60v330" style="stroke: rgb(238, 238, 238); stroke-opacity: 1; stroke-width: 1px;"/><path class="xgrid crisp" transform="translate(379.62,0)" d="M0,60v330" style="stroke: rgb(238, 238, 238); stroke-opacity: 1; stroke-width: 1px;"/><path class="xgrid crisp" transform="translate(539.44,0)" d="M0,60v330" style="stroke: rgb(238, 238, 238); stroke-opacity: 1; stroke-width: 1px;"/></g><g class="y"><path class="ygrid crisp" transform="translate(0,333.56)" d="M60,0h544" style="stroke: rgb(238, 238, 238); stroke-opacity: 1; stroke-width: 1px;"/><path class="ygrid crisp" transform="translate(0,269.13)" d="M60,0h544" style="stroke: rgb(238, 238, 238); stroke-opacity: 1; stroke-width: 1px;"/><path class="ygrid crisp" transform="translate(0,204.71)" d="M60,0h544" style="stroke: rgb(238, 238, 238); stroke-opacity: 1; stroke-width: 1px;"/><path class="ygrid crisp" transform="translate(0,140.28)" d="M60,0h544" style="stroke: rgb(238, 238, 238); stroke-opacity: 1; stroke-width: 1px;"/><path class="ygrid crisp" transform="translate(0,75.85)" d="M60,0h544" style="stroke: rgb(238, 238, 238); stroke-opacity: 1; stroke-width: 1px;"/></g></g><g class="zerolinelayer"><path class="xzl zl crisp" transform="translate(60,0)" d="M0,60v330" style="stroke: rgb(68, 68, 68); stroke-opacity: 1; stroke-width: 1px;"/></g><path class="xlines-below"/><path class="ylines-below"/><g class="overlines-below"/><g class="xaxislayer-below"/><g class="yaxislayer-below"/><g class="overaxes-below"/><g class="plot" transform="translate(60, 60)" clip-path="url(#clip21a01dxyplot)"><g class="scatterlayer mlayer"><g class="trace scatter trace066f6d" style="stroke-miterlimit: 2; opacity: 1;"><g class="fills"/><g class="errorbars"/><g class="lines"><path class="js-line" d="M0,40.11L0.96,55.47L1.28,53.21L1.6,55.73L1.92,49.4L2.56,60.49L2.88,51.16L3.2,64.43L3.52,50.67L3.84,61.03L4.16,57.94L4.47,63.39L4.79,55.39L5.11,62.87L5.43,45.08L6.07,63.62L6.39,54.15L6.71,48.85L7.03,87.56L7.35,43.99L7.67,57.01L7.99,57.36L8.31,68.79L8.63,52.04L9.27,53.66L9.59,71.05L9.91,54.09L10.23,65.42L10.55,102.8L10.87,58.65L11.19,61.94L11.51,80.31L11.83,69.75L12.15,22.75L12.78,64.6L13.1,57.18L13.42,51.44L14.7,84.12L15.02,50.1L15.34,83.3L15.66,72.79L15.98,56.64L16.3,79L16.62,62.28L16.94,62.4L17.26,58.78L17.58,67.47L17.9,69.89L18.22,61.98L19.18,78.11L19.5,63.19L19.82,54.23L20.14,84.49L20.46,87.77L20.78,82.71L21.1,66.34L21.41,93.03L22.37,62.75L22.69,77.88L23.01,73.48L23.33,80.78L23.97,55.34L24.29,71.53L24.93,75.6L25.25,56.69L25.57,89.59L26.21,93.78L26.53,68.16L26.85,90.03L27.17,93.58L27.49,80.76L27.81,83.45L28.13,73.29L28.45,65.64L28.77,77.12L29.09,75.99L29.41,78.49L29.73,78.42L30.04,69.95L30.36,69.53L30.68,62.22L31.32,71.83L31.64,94.11L32.28,62.31L32.6,87.18L33.56,68.35L33.88,85.68L34.2,84.36L34.52,45.1L34.84,100.53L35.16,84.76L35.48,68.65L35.8,74.64L36.12,67.88L36.44,46.16L37.08,80.21L37.4,74.34L37.72,83.56L38.04,106.34L38.35,65.74L38.67,89.59L38.99,50.32L39.63,107.83L39.95,48.86L40.91,86.18L41.23,91.81L41.55,60.43L41.87,76.67L42.19,86.81L42.51,81.09L42.83,95.01L43.15,93.68L43.47,50.13L44.43,85.89L44.75,70.32L45.07,109.16L45.39,90.92L45.71,92.2L46.03,58.22L46.35,62.38L46.67,90.94L47.3,41.71L47.62,48.29L47.94,71.25L48.26,50.72L48.58,72.81L48.9,69.3L49.86,97.98L50.18,51.65L50.5,95.22L50.82,65.68L51.14,76.52L51.46,106.57L51.78,78.3L52.1,84.04L52.42,70.31L52.74,76.33L53.06,90.76L53.38,107.96L53.7,76.87L54.02,104.73L54.34,66.28L55.29,101.38L55.61,98.58L55.93,89.64L56.25,86.87L56.57,71.07L57.21,99.38L57.53,89.8L57.85,75.47L58.49,95.92L58.81,63.6L59.45,82.7L59.77,70.24L60.41,76.29L60.73,125.52L61.05,53.13L61.37,78.71L61.69,93.77L62.01,55.3L62.33,96.93L62.65,91.47L63.61,64.78L63.92,71.28L64.56,88.38L64.88,111.47L65.2,85.77L65.52,109.44L65.84,96.88L66.16,95.49L66.48,63.25L66.8,98.73L67.44,86.58L67.76,56.56L68.4,102.83L68.72,80.81L69.04,90.18L69.36,63.89L69.68,74.62L70,93.66L70.32,102.88L70.64,90.52L70.96,89.15L71.28,66.72L71.6,89.38L71.92,92.78L72.55,50.09L72.87,73.52L73.19,87.35L73.51,98.88L73.83,83.28L74.15,85.13L74.47,64.37L75.11,89.12L75.43,41.71L76.07,96.18L76.39,84.41L76.71,79.38L77.35,87.35L77.67,75.68L77.99,72.45L78.31,83.9L78.63,126.22L78.95,89.28L79.27,74.52L79.59,102.25L79.91,93.87L80.23,74.76L80.55,69.76L80.86,81.81L81.5,90.7L81.82,53.66L82.14,99.56L82.46,79.16L82.78,56.29L83.74,102.43L84.06,85.16L84.38,98.13L84.7,80.75L85.02,69.78L85.98,98.12L86.3,74.23L86.94,98.39L87.26,88.7L87.58,93.01L88.54,62.18L88.86,83.02L89.18,71.56L89.49,74.93L89.81,87.66L90.13,79.76L90.45,85.71L90.77,85.47L91.09,85.59L91.41,52.86L92.05,108.74L92.37,78.42L92.69,75.58L93.01,88.55L93.33,116.95L93.65,81.74L93.97,83.8L94.29,116.1L94.61,105.27L94.93,61.23L95.57,103.48L96.21,99.11L96.53,79.73L97.8,119.04L98.12,59.55L98.76,106.32L99.08,78.34L99.4,63.59L99.72,97.74L100.04,95.83L100.36,85.3L101,82.48L101.32,110.36L101.64,87.63L102.28,83.33L102.6,100.9L102.92,67.95L103.24,95.41L103.56,99.58L103.88,135.47L104.2,47.54L104.52,95.27L104.84,76.02L105.16,60.92L105.48,97.06L105.8,63.99L106.12,59.6L106.43,61.68L106.75,88.16L107.07,101.39L107.39,75.32L107.71,60.06L108.03,75.08L108.35,88.18L108.67,101.81L108.99,92.4L109.31,75.66L109.95,105.07L110.27,60.92L110.59,64.8L110.91,63.56L111.23,89.94L111.55,87.63L111.87,101.45L112.19,77.75L112.51,102.9L112.83,98.04L113.15,118.99L113.47,81.53L113.79,86.77L114.11,69.73L114.43,56.24L114.75,100.32L115.7,74.72L116.02,84.72L116.34,82.1L116.66,98.41L116.98,117.69L117.3,95.82L117.62,76.69L117.94,63.71L118.26,100.58L118.58,95.73L118.9,59.55L119.22,49.25L119.54,80.4L120.18,89.32L120.5,40.56L121.46,109.53L121.78,98.1L122.1,82.5L122.74,60.71L123.06,138.39L124.01,76.79L124.33,83.51L124.65,51.06L124.97,111.7L125.29,58.98L125.61,101.75L125.93,92.58L126.25,76.25L126.57,116.13L127.53,77.4L127.85,91.69L128.17,113.1L128.49,79.79L128.81,99.32L129.13,87.24L129.45,80.74L130.41,107.42L130.73,86.46L131.05,100.67L131.69,97.14L132,84.2L132.32,80.48L132.64,96.93L132.96,52.7L133.28,99.79L133.6,98.53L133.92,103.65L134.24,91.73L134.56,128.1L134.88,96.39L135.2,79.6L135.52,72.06L135.84,84.6L136.16,81.22L136.48,96.72L136.8,118.32L137.12,90.01L137.44,110.99L137.76,96L138.08,156.03L138.4,124.94L138.72,81.28L139.04,72.89L139.36,94.08L139.68,114.75L140,82.26L140.63,103.38L140.95,87.09L141.27,97.22L141.59,97.02L141.91,78.08L142.87,88.82L143.19,70.15L144.15,98.16L144.47,86.59L144.79,116.17L145.11,75.68L145.43,103.6L145.75,52.3L146.07,133.42L146.39,112.43L146.71,66.53L147.03,126.79L147.67,120.61L147.99,89.13L148.31,100.19L148.63,82.55L149.58,117.78L149.9,75.21L150.22,92.94L150.54,90.58L150.86,78.75L151.18,107.1L151.5,88.08L151.82,87.63L152.46,114.24L152.78,67.26L153.1,106.67L153.42,106.37L153.74,61.89L154.06,38.61L154.38,108.01L154.7,112.25L155.02,78.94L155.34,101.18L155.66,26.32L156.3,109.8L156.62,83.8L156.94,103.8L157.25,112.77L157.57,109.07L157.89,92.11L158.21,86.38L158.53,114.93L159.17,93.41L159.49,105.55L159.81,100.74L160.13,82.08L160.45,71.08L160.77,120.71L162.05,61.95L162.37,75.68L163.33,107.97L163.65,61.79L164.61,144.85L164.93,103.75L165.57,152.33L165.88,95.6L166.52,82.38L166.84,102.27L167.8,87.79L168.12,112.85L168.76,259.52L169.08,95.39L169.4,83.04L169.72,83.58L170.04,117.3L170.68,72.39L171,95.56L171.64,88.02L171.96,105.66L172.28,75.84L172.6,84.13L172.92,87.76L174.2,110.12L174.51,90.47L174.83,113.75L175.15,85.74L175.47,96.82L176.43,88.12L176.75,76.99L177.71,112.42L178.03,109.54L178.99,71.41L179.31,112.94L179.63,117.76L179.95,87.48L180.27,60.93L180.59,114.61L180.91,119.86L181.23,112.12L182.51,86.42L182.82,92.04L183.14,81.26L183.46,137.01L184.1,70.48L184.42,93.38L184.74,106.51L185.06,90.69L185.38,135.58L186.34,90.29L186.66,83.99L187.3,64.49L187.62,106.41L187.94,113.31L188.26,68.51L188.9,98.57L189.22,93.62L189.54,85.82L189.86,64.91L190.18,132.05L191.14,99.72L191.45,99.85L191.77,123.72L192.09,115.45L192.41,89.36L192.73,116.42L193.05,84.99L193.37,80.67L193.69,65.9L194.01,75.68L194.33,109.47L194.65,85.44L194.97,109.56L195.29,100.44L195.61,105.97L195.93,86.99L196.25,115.18L196.57,83.01L196.89,114.91L197.21,77.65L198.17,109.55L198.49,92.91L199.13,66.81L199.45,103.37L199.76,86.68L200.08,92.17L200.4,93.87L200.72,70.48L201.04,78.57L201.36,82.66L201.68,86.75L202,85.51L202.32,117.99L202.96,60.61L203.28,69.56L203.6,126.23L204.24,132.41L204.56,66.45L204.88,59.26L205.52,99.95L205.84,98.45L206.16,79.02L206.48,81.87L206.8,104.07L207.12,83.3L207.44,120.48L207.76,91.23L208.08,125.09L208.39,104.91L208.71,98.34L209.03,76.12L209.67,100.59L209.99,74.57L210.31,116.8L210.63,86.23L210.95,101.03L211.27,108.68L211.59,98.23L211.91,102.09L212.23,101.67L212.55,118.05L213.19,73.45L213.51,83.2L213.83,96.3L214.47,86.55L214.79,94.88L215.11,101.54L215.43,81.79L216.07,130.31L216.39,69.97L217.34,93.46L217.66,81.08L217.98,248.13L218.3,86.59L218.62,113.09L218.94,102.45L219.26,144.49L219.9,62.09L220.22,90.13L220.54,92.55L220.86,99.6L221.18,73.87L221.5,108.09L221.82,80.99L222.14,74.53L222.46,73.69L222.78,101.24L223.42,78.81L223.74,123.47L224.06,84.5L224.38,104.76L224.7,122.49L225.33,87.22L225.65,97.84L225.97,96.49L226.29,90.91L226.61,92.09L226.93,101.69L227.25,76.19L227.57,124.17L228.21,58.27L228.53,115.19L229.49,68.01L229.81,99.32L230.13,114.6L230.45,86.87L230.77,108.1L231.09,96.39L231.41,71.84L231.73,106.39L232.37,99.14L232.69,91.09L233.01,64.43L233.33,95.71L233.65,93.02L233.96,105.51L234.28,80.66L235.24,120.39L235.56,117.95L235.88,66.98L236.52,107.16L236.84,83.61L237.16,138.21L237.48,86.62L237.8,104.88L238.12,109.22L238.44,157.28L238.76,64.53L239.08,98.99L239.4,98.9L239.72,120.86L240.04,60.96L240.36,64.79L240.68,113.87L241,98.98L241.32,48.44L241.64,92.17L241.96,85.96L242.27,38.43L243.23,102.32L243.55,105.71L243.87,82.67L244.19,125.61L245.15,85.43L245.47,121.54L245.79,93.18L246.43,99.57L246.75,94.56L247.07,116.42L247.39,107.78L247.71,98.26L248.03,115.43L248.67,109.88L248.99,70.49L249.31,117.1L249.63,85.89L249.95,78.91L250.27,67.62L250.59,109.25L250.9,104.3L251.22,59.34L251.54,117.5L251.86,55.24L252.18,105.14L252.5,76.26L253.14,111.61L253.46,89.45L253.78,107.43L254.1,96.43L254.42,79.29L254.74,76.42L255.06,96.68L255.38,100.83L255.7,90.55L256.02,84.33L256.34,102.78L256.66,102.59L256.98,86.7L257.62,106.19L257.94,85.22L258.26,88.19L258.58,103.7L258.9,94.95L259.22,109.84L259.53,80.4L259.85,88.35L260.17,104.19L260.49,51.36L261.13,62.63L261.45,80.74L261.77,122.32L262.09,80.79L262.41,91.57L262.73,88.35L263.05,243.46L263.69,84.53L264.01,130.26L264.33,90.52L264.65,113.55L264.97,102.82L265.29,56.9L266.25,123.48L266.57,78.56L266.89,122.22L267.21,107.89L267.53,105.38L268.48,78.26L268.8,114.58L270.08,71.68L270.4,143.18L270.72,95.91L271.04,107.96L271.36,112.17L271.68,66.79L272,93.57L272.32,109.17L272.64,97.56L272.96,104.57L273.28,119.24L273.6,122.78L273.92,85.51L274.24,111.89L274.56,97.71L274.88,91.8L275.52,91.02L275.84,108.11L276.16,97.53L276.79,100.61L277.11,79.01L277.43,104.43L277.75,99.74L278.07,91.81L278.39,147.27L278.71,88.96L279.03,49.24L279.35,156.85L279.67,74.85L279.99,88.87L280.31,99.41L280.63,90.14L280.95,93.79L281.27,121.34L281.59,111.99L281.91,97.29L282.23,89.81L282.55,97.57L282.87,61.43L283.51,141.96L283.83,111.35L284.15,97.05L284.47,97.75L284.78,93.41L285.42,78.02L285.74,87.71L286.06,68.86L286.38,77.78L286.7,89.15L287.02,45.38L287.34,81.86L287.66,112.02L287.98,107.11L288.3,80.16L288.94,126.67L289.26,68.72L289.9,123.86L290.22,107.82L290.54,89.98L291.5,110.68L291.82,109.47L292.14,113.03L292.46,124.99L293.1,69.59L293.41,107.27L293.73,98.83L294.05,102.46L294.37,103.01L294.69,114.02L295.01,88.55L295.33,71.57L295.97,75.55L296.29,98.59L296.61,101.64L296.93,73.38L297.25,97.63L297.57,81.18L297.89,62.51L298.53,121.96L298.85,100.94L299.17,78.13L299.81,130.01L300.13,101.57L300.45,44.24L300.77,112.45L301.09,77.95L301.41,84.78L301.73,113.2L302.36,44.18L302.68,86.06L303.64,102.44L303.96,87.14L304.6,84.65L304.92,72.65L305.24,126.05L305.56,99.37L305.88,76.27L306.2,150.12L306.52,101.43L306.84,115.08L307.16,81.71L307.48,98.98L307.8,93.64L308.76,112.78L309.08,37.36L310.04,105.5L310.35,108.81L310.67,108.27L310.99,118.76L311.63,81.04L311.95,108.01L312.27,101.21L312.59,115.27L312.91,65.12L313.23,111.55L313.55,101.61L313.87,98.54L314.19,113.68L314.51,103.39L314.83,65.43L315.47,133.06L315.79,101.57L316.11,87.33L316.43,114.77L316.75,104.86L317.07,93.27L317.39,112L317.71,83.7L318.35,66.49L318.67,76.89L319.3,152.08L319.62,91.08L320.26,73.65L320.58,78L320.9,89.58L321.54,105.92L321.86,80.93L322.18,115.67L322.5,92.24L322.82,91.75L323.46,107.77L323.78,102.28L324.1,59.88L324.74,117.95L325.06,104.85L325.38,113.72L325.7,125.73L326.02,94.23L326.66,81.15L326.98,102.21L327.29,106.62L327.61,99.85L327.93,118.87L328.25,76.62L328.57,108.57L328.89,90.43L329.21,89.13L329.85,116.69L330.17,74.56L330.49,116.23L331.13,106.71L331.45,90.41L331.77,112.57L332.09,84.33L332.41,90.99L332.73,110.28L333.05,108.09L333.37,92.89L334.01,129.45L334.33,79.87L335.29,125.64L335.61,109.91L336.56,53.84L336.88,75.03L337.2,95.61L337.52,57.22L337.84,124.89L338.16,94.47L338.48,124.06L338.8,117.2L339.12,121.01L339.44,143.45L340.08,97.67L340.4,119.5L340.72,148.83L341.36,80.57L341.68,82.1L342,127.41L342.32,75.17L342.64,102.51L342.96,95.03L343.28,102.08L343.6,89.3L343.92,77.1L344.24,112.68L344.55,125.24L344.87,92.94L345.51,120.18L345.83,138.29L346.15,65.09L346.79,80.58L347.11,102.12L347.43,107.65L347.75,99.7L348.07,42.96L348.39,109.57L348.71,109.43L349.03,83.18L349.35,101.65L349.67,106.74L349.99,103.45L350.31,89.79L351.59,125.59L351.91,105.85L352.86,58.71L353.18,58.64L353.5,126.05L353.82,90.44L354.14,68.49L354.46,118.63L355.1,110.7L355.42,85.78L355.74,86.04L356.06,111.61L356.38,109.26L356.7,97.87L357.02,76.21L357.34,88.11L357.66,141.02L358.62,58.41L358.94,120.3L359.9,78.11L360.22,102.75L360.54,74.87L360.86,78.85L361.18,94.63L361.81,117.68L362.13,106.67L362.45,98.69L362.77,60.89L363.73,102.49L364.05,92.63L364.37,60.31L364.69,129.84L365.65,72.54L365.97,104.95L366.61,85.71L366.93,133.48L367.25,84.09L367.89,98.38L368.21,87.24L368.53,125.37L368.85,83.01L369.17,103.91L369.49,97.17L369.8,103.04L370.12,99.78L370.44,101.99L370.76,86.54L371.4,107.62L371.72,91.19L372.04,117.24L372.36,90.65L372.68,112.71L373,89.57L373.32,81.23L373.64,112.84L373.96,130.89L374.28,97.69L375.24,229.39L375.56,154.45L376.2,79.47L376.52,106.06L376.84,95.58L377.16,117.34L377.8,111.91L378.12,97.94L378.75,115.06L379.07,86.03L379.71,87.37L380.03,47.33L380.35,102.91L380.67,119.99L380.99,106.63L381.31,92.24L381.63,94.27L381.95,80.92L382.27,102.17L382.59,94.54L382.91,85.5L383.23,16.5L383.55,92.02L383.87,93.94L384.19,106.95L384.51,105.43L384.83,98.27L385.15,132.65L385.79,127.15L386.11,111.47L386.43,114.22L386.75,100.38L387.38,75.16L387.7,49.72L388.66,129.26L388.98,90.93L389.94,123.36L390.26,100.48L390.58,98.44L390.9,127.42L391.22,72.84L391.86,86.35L392.18,117.76L392.5,77.4L392.82,89.76L393.14,117L393.78,40.93L394.1,123.3L394.74,77.94L395.06,117.93L395.37,116.26L395.69,129.09L396.01,260.37L396.33,87.19L396.65,131.85L396.97,79.81L397.61,92.94L397.93,63.37L398.25,117.53L398.57,69.62L398.89,85.1L399.53,109.91L399.85,43.5L400.17,121.92L400.81,106.71L401.13,90.57L401.45,62.68L401.77,98.43L402.09,102.41L402.41,60.63L402.73,92.56L403.05,116.61L404,88.32L404.32,98.34L404.64,98.27L404.96,109.77L405.28,129.41L405.6,116.12L405.92,115.14L406.24,110.67L406.56,132.92L407.2,137.11L407.84,82.62L408.16,75.29L408.48,59.97L408.8,91.94L409.12,92.12L409.44,104.97L409.76,123.22L410.08,74.65L410.4,94.53L410.72,173.15L411.36,107.26L411.68,120.77L412,109.5L412.31,119.42L412.63,99.61L412.95,112.27L413.27,94.07L413.59,95.45L413.91,135.28L414.55,85.41L414.87,131.1L415.83,85.98L416.15,137.7L416.47,37.46L416.79,152.8L417.11,198.15L417.43,212.07L417.75,119L418.07,125.2L418.39,55.12L419.35,121.24L419.67,85.82L419.99,86.35L420.31,169.06L420.94,70.47L421.26,89.77L421.58,119.09L421.9,106.01L422.22,107.87L422.54,129.56L423.5,43.91L423.82,95.59L424.78,134.61L425.1,86.94L426.38,129.46L426.7,65.87L427.34,117.04L427.66,76.01L427.98,105L428.62,98.79L428.94,38.8L429.25,99.57L429.57,84.35L429.89,74.71L430.85,134.4L431.17,103.36L431.49,121L431.81,103.24L432.13,63.11L433.09,136.51L433.41,84.61L433.73,87.86L434.05,67.32L434.37,92.75L434.69,64.24L435.01,90.6L435.33,77.82L435.65,70.52L435.97,73.19L436.29,121.52L436.93,124.55L437.25,85.03L437.57,107.34L437.88,112.93L438.2,133.5L439.16,106.82L439.48,125.78L440.76,80.89L441.08,111.66L441.4,86.37L441.72,116.13L442.04,129.8L442.36,133.92L442.68,120.51L443.32,113.95L443.64,155.86L443.96,86.14L444.28,135.74L444.6,148.73L445.88,52.22L446.2,127.14L446.83,60.61L447.15,101.69L447.47,100.79L447.79,124.85L448.11,140.52L448.43,96.3L449.07,75.04L449.39,119.14L449.71,127.83L450.03,108.34L450.35,257.03L450.67,114.34L450.99,69.31L451.95,118.72L452.27,110.68L452.59,106.14L452.91,107.76L453.23,119.87L453.55,168.08L453.87,94.05L454.19,94.01L454.51,62.24L455.46,139.67L455.78,119.47L456.1,113.23L456.42,63.9L456.74,87.3L457.06,100.49L457.38,125.41L457.7,116.19L458.02,93.28L458.34,91.21L458.66,82.68L458.98,85.21L459.3,94.14L459.62,90.48L459.94,77.14L460.26,114.73L460.9,106.83L461.22,102.84L461.54,97.97L461.86,105.61L462.5,144.49L462.82,82.32L463.45,162.66L463.77,92.05L464.09,83.35L464.41,87.91L464.73,108.58L465.37,100.44L465.69,115.34L466.01,101.73L466.33,124.06L467.29,76.95L467.61,105.11L467.93,78.9L468.25,121.73L469.21,78.04L469.53,89.16L469.85,83.14L470.17,87.34L470.49,102.75L470.81,91.41L471.13,117.38L471.45,134.9L471.76,113.98L472.08,97.79L472.4,37.24L472.72,97.2L473.04,69.51L473.68,123.78L474,92.19L474.96,125.46L475.28,81.82L475.6,173.99L475.92,99.41L476.24,117.14L476.88,53.54L477.2,83.82L477.52,110.09L477.84,85.78L478.16,97.52L478.48,99.71L478.8,59.72L479.44,69.37L479.76,107.37L480.08,89.08L480.39,98.29L480.71,118.95L481.03,68.64L481.35,70.79L481.67,121.37L482.31,45.04L482.63,121.35L483.27,79.17L483.59,119.51L484.55,92.74L484.87,97.89L485.19,101.83L485.51,99.15L485.83,90.76L486.47,117.09L486.79,75.73L487.43,137.03L487.75,94.66L488.07,95.21L488.39,85.1L488.71,96.92L489.02,84.22L489.34,74.23L490.94,118.57L491.26,99.11L491.9,74.55L492.22,82.8L492.54,114.33L492.86,53.64L493.18,110.58L493.5,91.29L493.82,67.89L494.14,118.05L495.1,69.9L495.42,139.03L496.38,69.12L496.7,70.71L497.02,167.71L497.33,63.94L497.97,97.29L498.29,131.05L498.93,51.77L499.25,66.79L499.57,88.55L499.89,79.88L500.21,95.37L500.53,108.55L500.85,103.93L501.17,61.61L502.13,237.08L502.45,107.06L503.09,121.89L503.41,94.92L503.73,104.75L504.05,95.45L504.37,64.89L504.69,97.99L505.33,97.63L505.65,115.43L505.96,313.5L506.28,79.93L506.6,74.27L507.24,107.68L507.56,84.68L508.52,117.69L508.84,101.75L509.16,98.35L509.48,134.31L510.12,82.22L510.44,105.44L510.76,83.79L511.08,84.38L511.4,66.62L512.68,112.71L513,62.64L513.32,84.76L513.64,168.48L514.27,95.46L514.59,188.02L515.55,84.81L515.87,67.86L516.83,110.89L517.15,94.71L517.47,83.66L517.79,118.05L518.75,90.85L519.07,57.43L519.71,117.63L520.03,100.17L520.35,101.77L520.67,140.88L520.99,89.85L521.31,68.19L521.63,62.65L521.95,88.36L522.27,129.85L522.59,88.62L522.9,87.38L524.18,99.29L524.5,105.51L524.82,64.36L525.14,64.9L525.46,90.88L525.78,67.96L526.1,147.1L526.42,81.82L526.74,89.63L527.06,111.65L528.34,71.47L528.66,121.63L529.3,104.4L529.62,117.85L529.94,122.58L530.26,108.96L530.58,63.42L531.22,75.82L531.53,108.29L531.85,90.5L532.17,93.97L532.49,115.09L533.45,105.15L533.77,85.45L534.09,114.03L534.41,63.63L534.73,93.97L535.05,80.54L535.37,82.65L536.01,161.6L536.33,133.1L536.65,92.9L537.61,115.84L537.93,179.32L538.25,104.05L538.89,127.26L539.21,94.2L539.53,88.35L539.84,104.22L540.16,112.21L540.8,111.96L541.12,88.86L541.44,137.8L542.08,125.93L542.4,101.27L542.72,106.6L543.04,101.34L543.36,95.6L543.68,99L544,70.57" style="vector-effect: non-scaling-stroke; fill: none; stroke: rgb(31, 119, 180); stroke-opacity: 1; stroke-width: 2px; opacity: 1;"/></g><g class="points"/><g class="text"/></g></g></g><g class="overplot"/><path class="xlines-above crisp" d="M0,0" style="fill: none;"/><path class="ylines-above crisp" d="M0,0" style="fill: none;"/><g class="overlines-above"/><g class="xaxislayer-above"><g class="xtick"><text text-anchor="middle" x="0" y="403" transform="translate(60,0)" style="font-family: 'Open Sans', verdana, arial, sans-serif; font-size: 12px; fill: rgb(68, 68, 68); fill-opacity: 1; white-space: pre;">0</text></g><g class="xtick"><text text-anchor="middle" x="0" y="403" transform="translate(219.81,0)" style="font-family: 'Open Sans', verdana, arial, sans-serif; font-size: 12px; fill: rgb(68, 68, 68); fill-opacity: 1; white-space: pre;">50k</text></g><g class="xtick"><text text-anchor="middle" x="0" y="403" transform="translate(379.62,0)" style="font-family: 'Open Sans', verdana, arial, sans-serif; font-size: 12px; fill: rgb(68, 68, 68); fill-opacity: 1; white-space: pre;">100k</text></g><g class="xtick"><text text-anchor="middle" x="0" y="403" transform="translate(539.44,0)" style="font-family: 'Open Sans', verdana, arial, sans-serif; font-size: 12px; fill: rgb(68, 68, 68); fill-opacity: 1; white-space: pre;">150k</text></g></g><g class="yaxislayer-above"><g class="ytick"><text text-anchor="end" x="59" y="4.199999999999999" transform="translate(0,333.56)" style="font-family: 'Open Sans', verdana, arial, sans-serif; font-size: 12px; fill: rgb(68, 68, 68); fill-opacity: 1; white-space: pre;">3.5</text></g><g class="ytick"><text text-anchor="end" x="59" y="4.199999999999999" transform="translate(0,269.13)" style="font-family: 'Open Sans', verdana, arial, sans-serif; font-size: 12px; fill: rgb(68, 68, 68); fill-opacity: 1; white-space: pre;">4</text></g><g class="ytick"><text text-anchor="end" x="59" y="4.199999999999999" transform="translate(0,204.71)" style="font-family: 'Open Sans', verdana, arial, sans-serif; font-size: 12px; fill: rgb(68, 68, 68); fill-opacity: 1; white-space: pre;">4.5</text></g><g class="ytick"><text text-anchor="end" x="59" y="4.199999999999999" transform="translate(0,140.28)" style="font-family: 'Open Sans', verdana, arial, sans-serif; font-size: 12px; fill: rgb(68, 68, 68); fill-opacity: 1; white-space: pre;">5</text></g><g class="ytick"><text text-anchor="end" x="59" y="4.199999999999999" transform="translate(0,75.85)" style="font-family: 'Open Sans', verdana, arial, sans-serif; font-size: 12px; fill: rgb(68, 68, 68); fill-opacity: 1; white-space: pre;">5.5</text></g></g><g class="overaxes-above"/></g></g><g class="polarlayer"/><g class="ternarylayer"/><g class="geolayer"/><g class="pielayer"/><g class="glimages"/><defs id="topdefs-21a01d"><g class="clips"/><clipPath id="legend21a01d"><rect width="73" height="29" x="0" y="0"/></clipPath></defs><g class="layer-above"><g class="imagelayer"/><g class="shapelayer"/></g><g class="infolayer"><g class="legend" pointer-events="all" transform="translate(614.88, 60)"><rect class="bg" shape-rendering="crispEdges" width="73" height="29" x="0" y="0" style="stroke: rgb(68, 68, 68); stroke-opacity: 1; fill: rgb(255, 255, 255); fill-opacity: 1; stroke-width: 0px;"/><g class="scrollbox" transform="translate(0, 0)" clip-path="url(#legend21a01d)"><g class="groups"><g class="traces" transform="translate(0, 14.5)" style="opacity: 1;"><g class="layers" style="opacity: 1;"><g class="legendfill"/><g class="legendlines"><path class="js-line" d="M5,0h30" style="fill: none; stroke: rgb(31, 119, 180); stroke-opacity: 1; stroke-width: 2px;"/></g><g class="legendsymbols"><g class="legendpoints"/></g></g><text class="legendtext user-select-none" text-anchor="start" x="40" y="4.680000000000001" style="font-family: 'Open Sans', verdana, arial, sans-serif; font-size: 12px; fill: rgb(68, 68, 68); fill-opacity: 1; white-space: pre;">train</text><rect class="legendtoggle" pointer-events="all" x="0" y="-9.5" width="113" height="19" style="cursor: pointer; fill: rgb(0, 0, 0); fill-opacity: 0;"/></g></g></g><rect class="scrollbar" rx="20" ry="3" width="0" height="0" x="0" y="0" style="fill: rgb(128, 139, 164); fill-opacity: 1;"/></g><g class="g-gtitle"><text class="gtitle" x="350" y="30" text-anchor="middle" dy="0em" style="font-family: 'Open Sans', verdana, arial, sans-serif; font-size: 17px; fill: rgb(68, 68, 68); opacity: 1; font-weight: normal; white-space: pre;">Loss</text></g><g class="g-xtitle"><text class="xtitle" x="332" y="442" text-anchor="middle" style="font-family: 'Open Sans', verdana, arial, sans-serif; font-size: 14px; fill: rgb(68, 68, 68); opacity: 1; font-weight: normal; white-space: pre;">batch</text></g><g class="g-ytitle"><text class="ytitle" transform="rotate(-90,22,225)" x="22" y="225" text-anchor="middle" style="font-family: 'Open Sans', verdana, arial, sans-serif; font-size: 14px; fill: rgb(68, 68, 68); opacity: 1; font-weight: normal; white-space: pre;">loss</text></g></g></svg>