<svg class="main-svg" xmlns="http://www.w3.org/2000/svg" xmlns:xlink="http://www.w3.org/1999/xlink" width="700" height="450" style="" viewBox="0 0 700 450"><rect x="0" y="0" width="700" height="450" style="fill: rgb(255, 255, 255); fill-opacity: 1;"/><defs id="defs-245270"><g class="clips"><clipPath id="clip245270xyplot" class="plotclip"><rect width="544" height="330"/></clipPath><clipPath class="axesclip" id="clip245270x"><rect x="60" y="0" width="544" height="450"/></clipPath><clipPath class="axesclip" id="clip245270y"><rect x="0" y="60" width="700" height="330"/></clipPath><clipPath class="axesclip" id="clip245270xy"><rect x="60" y="60" width="544" height="330"/></clipPath></g><g class="gradients"/></defs><g class="bglayer"/><g class="layer-below"><g class="imagelayer"/><g class="shapelayer"/></g><g class="cartesianlayer"><g class="subplot xy"><g class="layer-subplot"><g class="shapelayer"/><g class="imagelayer"/></g><g class="gridlayer"><g class="x"><path class="xgrid crisp" transform="translate(220.47,0)" d="M0,60v330" style="stroke: rgb(238, 238, 238); stroke-opacity: 1; stroke-width: 1px;"/><path class="xgrid crisp" transform="translate(380.94,0)" d="M0,60v330" style="stroke: rgb(238, 238, 238); stroke-opacity: 1; stroke-width: 1px;"/><path class="xgrid crisp" transform="translate(541.4200000000001,0)" d="M0,60v330" style="stroke: rgb(238, 238, 238); stroke-opacity: 1; stroke-width: 1px;"/></g><g class="y"><path class="ygrid crisp" transform="translate(0,369.04)" d="M60,0h544" style="stroke: rgb(238, 238, 238); stroke-opacity: 1; stroke-width: 1px;"/><path class="ygrid crisp" transform="translate(0,318.73)" d="M60,0h544" style="stroke: rgb(238, 238, 238); stroke-opacity: 1; stroke-width: 1px;"/><path class="ygrid crisp" transform="translate(0,268.41999999999996)" d="M60,0h544" style="stroke: rgb(238, 238, 238); stroke-opacity: 1; stroke-width: 1px;"/><path class="ygrid crisp" transform="translate(0,218.11)" d="M60,0h544" style="stroke: rgb(238, 238, 238); stroke-opacity: 1; stroke-width: 1px;"/><path class="ygrid crisp" transform="translate(0,167.8)" d="M60,0h544" style="stroke: rgb(238, 238, 238); stroke-opacity: 1; stroke-width: 1px;"/><path class="ygrid crisp" transform="translate(0,117.49000000000001)" d="M60,0h544" style="stroke: rgb(238, 238, 238); stroke-opacity: 1; stroke-width: 1px;"/><path class="ygrid crisp" transform="translate(0,67.18)" d="M60,0h544" style="stroke: rgb(238, 238, 238); stroke-opacity: 1; stroke-width: 1px;"/></g></g><g class="zerolinelayer"><path class="xzl zl crisp" transform="translate(60,0)" d="M0,60v330" style="stroke: rgb(68, 68, 68); stroke-opacity: 1; stroke-width: 1px;"/></g><path class="xlines-below"/><path class="ylines-below"/><g class="overlines-below"/><g class="xaxislayer-below"/><g class="yaxislayer-below"/><g class="overaxes-below"/><g class="plot" transform="translate(60, 60)" clip-path="url(#clip245270xyplot)"><g class="scatterlayer mlayer"><g class="trace scatter trace29e4ca" style="stroke-miterlimit: 2; opacity: 1;"><g class="fills"/><g class="errorbars"/><g class="lines"><path class="js-line" d="M0,27.15L0.64,26.8L0.96,27.68L2.25,37.44L2.57,35.06L2.89,34.58L3.21,29.94L4.17,49.46L4.49,34.45L4.81,27.32L5.14,32.65L5.46,34.14L5.78,34.48L6.1,31.25L6.74,48.41L7.06,102.07L8.02,34.69L8.34,48.38L8.67,30.3L8.99,33.49L9.31,53.57L9.63,74.74L9.95,37.95L10.27,40.89L10.59,32.49L11.55,58.46L11.87,52.75L12.2,34.64L12.52,44.68L12.84,38.73L13.16,38.03L13.48,39.83L13.8,62.16L14.12,48.54L14.44,57.26L14.76,62.71L15.08,70.04L15.41,56.41L15.73,27.02L16.05,37.08L16.37,51.65L16.69,52.71L17.01,44.69L17.33,33.4L17.65,55.26L18.94,40.31L19.26,71.51L19.58,47.26L19.9,60.12L20.22,65.35L20.86,40.48L21.18,46.6L21.5,50.89L21.82,49.24L22.15,17.01L22.47,27.67L22.79,66.01L23.11,62.8L23.43,63.35L23.75,50.64L24.07,48.45L24.39,62.05L24.71,43.8L25.03,63.34L25.35,51.38L25.68,48.78L26,52.46L26.32,40.21L26.64,54.93L26.96,51.48L27.28,50.13L27.6,51.16L27.92,31.65L28.56,64.66L28.88,40.86L29.21,41.31L29.53,60.4L29.85,56.79L30.17,70.4L30.49,72.38L30.81,43.03L31.13,33.77L31.45,79.54L31.77,54.73L32.09,57.54L32.42,69.3L32.74,51.94L33.06,53.36L33.38,69.06L33.7,44.36L34.02,49.12L34.34,62.31L34.66,69.55L34.98,59.87L35.3,52.23L35.62,42.19L36.27,45.31L36.59,55.65L37.23,60.22L37.55,35.97L37.87,67.65L38.51,63.34L38.83,45.5L39.16,68.12L39.48,53.18L39.8,60.11L40.12,70.19L40.44,51.36L41.4,65.18L41.72,45.49L42.04,62.98L42.36,62.72L42.69,37.47L43.01,60.44L43.33,35.52L43.65,53.5L43.97,28.65L44.29,62.14L44.93,53.61L45.25,73.05L45.57,29.08L45.89,59.01L46.22,67.46L46.86,46.03L47.18,52.33L47.5,60.6L47.82,42.49L48.14,87.35L49.43,45.81L49.75,62.24L50.07,41.48L50.39,44.56L50.71,54.67L51.03,53.54L51.35,58.75L51.67,59.86L51.99,87.65L52.63,51.74L52.96,77.54L53.28,76.76L53.6,68.57L54.24,37.67L54.56,45.9L54.88,52.89L55.2,56.33L55.52,51.89L55.84,75.67L56.17,74.15L56.49,80.74L57.13,62.39L57.45,71.78L58.09,29.65L58.41,43.17L58.73,42.49L59.05,67.97L59.37,40.48L59.7,59.73L60.34,60.02L60.66,42.8L60.98,45.43L61.3,64.27L61.62,35.45L61.94,76.68L62.58,37.8L62.91,51.14L63.23,54.99L63.55,43.17L63.87,77.87L64.19,49.43L64.83,51.86L65.15,78.49L66.44,48.52L66.76,62.94L67.08,54.39L67.4,72.38L67.72,71.59L68.04,72.41L68.36,69.59L69,77.7L69.32,65.82L70.29,37.77L70.61,68.06L70.93,81.29L71.25,62.3L71.57,42.39L71.89,76.97L72.21,58.64L72.85,64.59L73.18,66.78L73.82,46.78L74.14,57.36L74.46,57.69L75.74,96.45L76.06,49.63L76.71,67.75L77.03,66.18L77.35,34.76L78.63,69.14L78.95,49.75L79.92,79.63L80.24,67.6L80.88,63.26L81.2,66.91L81.52,67.51L81.84,61.98L82.16,85.57L82.48,53.1L83.12,46.68L83.45,56.13L84.09,78.02L84.41,65.91L84.73,62.74L85.05,48L85.69,77.29L86.01,75.38L86.33,58.85L86.65,64.55L86.98,32.45L87.3,33.56L87.62,52.7L88.58,74.84L88.9,72.25L89.22,63.45L89.54,49.19L89.86,64.89L90.19,64.67L90.51,82.73L90.83,31.23L91.15,75.46L91.47,65.64L91.79,45.42L92.11,53.49L92.43,81.98L92.75,67.67L93.07,99.81L93.72,41.98L94.04,66.42L94.36,79.61L94.68,51.54L95.32,55.34L95.64,51.73L95.96,46.87L96.28,85.12L96.6,64.16L96.93,78.12L97.25,79.43L97.57,44.77L97.89,62.81L98.21,64.16L98.53,60.3L98.85,64.53L99.17,67.78L99.49,68.89L99.81,44.23L100.78,99.22L101.1,61.19L101.42,78.41L101.74,51.44L102.38,70.47L102.7,64.73L103.02,46.23L103.34,32.04L103.66,59.32L103.99,93.88L104.31,19.08L104.95,96.76L105.27,59.31L105.59,16.5L105.91,47.71L106.23,86.62L106.87,32.23L107.2,69.28L107.52,69.6L107.84,47.95L108.16,39.89L108.48,46.01L108.8,67L109.12,56.14L109.76,59.03L110.08,55.27L110.4,72.12L110.73,61.46L111.05,44.18L111.69,65.75L112.01,56.01L112.33,51.69L112.65,73.85L112.97,60.35L113.29,65.6L113.61,65.74L113.94,77.83L114.58,53.8L114.9,59.13L115.22,65.01L115.54,66.95L115.86,62.57L116.18,31L116.5,39.33L116.82,69.9L117.14,45.36L117.47,70.13L117.79,57.86L118.11,71.94L118.43,52.73L118.75,22.3L119.07,61.41L119.39,65.16L119.71,64.99L120.03,42.13L121,76.38L121.32,73.53L121.96,65.44L122.28,73.95L122.6,60.96L123.24,63.97L123.56,69.2L123.88,86.35L124.21,73.18L124.53,71.15L124.85,49.77L125.17,60.68L125.49,64.72L125.81,100.98L126.13,62.06L126.45,58.27L126.77,99.81L127.09,64.85L127.41,75.55L128.06,71.4L128.38,55.64L128.7,105.44L129.02,57.85L129.34,33.71L129.66,31.4L129.98,43.12L130.3,72.72L130.95,65.36L131.27,64.47L131.59,93.51L131.91,44.79L132.23,48.52L132.55,46.77L132.87,103.47L133.19,57.85L133.83,62.33L134.15,75.87L134.8,47.94L135.12,73.47L135.44,75.56L135.76,61.66L136.08,88.12L136.4,74.3L136.72,54.38L137.04,77.38L137.36,59.17L137.68,66.77L138.01,55.78L138.33,133.46L139.29,58.71L139.61,67.2L139.93,88.35L140.25,85.8L140.57,80.26L140.89,47.31L141.22,100.01L142.18,46.73L142.5,61.82L142.82,56.73L143.14,65.56L143.46,55.06L143.78,75.96L144.1,72.79L144.42,73.2L144.75,48.75L145.71,66.91L146.03,41.71L146.67,87.76L146.99,82.35L147.31,60.75L147.63,87.87L147.96,68.72L148.28,67.02L148.6,61.77L148.92,71.83L149.24,75.5L149.56,49.83L150.52,100.32L150.84,47.11L151.81,94.66L152.13,54.29L153.09,88.33L153.41,33.43L153.73,83.97L154.05,58.15L154.37,64.32L154.69,52.52L155.02,83.48L155.98,46.78L156.3,51.87L156.62,101.79L157.26,100.03L157.58,45.53L158.23,89.39L158.55,70.2L158.87,80.51L159.19,35.33L159.51,81.77L159.83,71.59L160.15,49.55L160.47,82.43L161.43,50.23L161.76,81.67L162.08,59.32L162.4,84.77L162.72,59.41L163.04,82.42L163.36,45.57L163.68,112.27L164,42.25L164.32,72.29L164.64,68.57L164.97,70L165.29,77.63L166.25,52.58L166.57,61.79L166.89,78.73L167.21,66.01L167.53,34.33L168.17,58.93L168.5,46.44L168.82,161.91L169.46,35.44L169.78,88.55L170.1,72.63L170.42,53.51L171.06,57.01L171.38,78.18L171.71,38.06L172.03,95.02L172.67,58.15L172.99,58.51L173.31,69.24L173.63,67.21L173.95,82.03L174.27,81.77L174.59,54.46L174.91,55.96L175.24,77.69L175.56,95.26L175.88,55.27L176.2,45.87L176.52,73.74L176.84,62.85L177.16,72.85L177.48,74.69L178.77,55.01L179.09,86.98L179.41,35.09L180.05,51.19L180.37,69.67L181.01,87.28L181.33,37.22L181.98,71.69L182.3,68.45L182.62,84.92L182.94,82.97L183.26,70.94L183.58,77.97L183.9,107.39L184.86,62.03L185.18,63.33L185.51,49.72L185.83,203.14L186.47,64.49L186.79,78.58L187.11,62.68L187.43,44.76L188.07,46.27L188.39,51.5L189.36,81.48L189.68,74.34L190,70.89L190.32,80.13L190.64,56.67L191.28,61.77L191.6,43.97L191.92,77.38L192.25,65.76L192.57,39.33L192.89,73.72L193.21,69.71L193.53,58.93L194.17,68.97L194.49,56.39L194.81,55.36L195.13,85.91L196.42,40.98L196.74,43.38L197.06,77.87L197.38,77.67L197.7,64.08L198.34,88.2L198.66,64.65L199.31,88.14L199.63,69.22L199.95,31.8L200.27,65.69L200.59,65.86L200.91,38.19L201.23,89.69L201.55,164.09L201.87,89.95L202.19,56.41L202.52,99.48L202.84,81.61L203.16,31.9L204.44,99.46L204.76,54.76L205.4,52.97L206.05,86.62L206.37,34.11L206.69,86.58L207.01,50.51L207.33,60.1L207.65,67.94L207.97,66.05L208.29,61.06L208.93,73.5L209.26,67.07L209.58,95.58L209.9,49.59L210.22,54.94L210.54,94.34L211.18,44.97L211.5,76.51L211.82,43.81L212.14,85.58L212.46,80.8L213.75,40.05L214.07,92.61L214.39,55.88L215.03,57.66L215.35,54.2L215.67,46.11L216,82.88L216.96,51.78L217.28,80.53L218.24,88.33L218.56,53.92L219.85,95.28L220.17,60.33L220.81,90.78L221.13,85.56L221.45,77.77L221.77,69.86L222.09,41.64L222.74,90.49L223.06,67.48L223.38,64.76L223.7,62.64L224.02,79.49L224.34,81.89L224.66,56.79L224.98,53.77L225.3,73.39L225.62,53.26L225.94,86.66L226.91,72.17L227.23,99.28L227.87,54.76L228.19,96.53L228.51,50.43L229.15,52.96L229.47,97.01L230.12,66.81L230.44,86.08L230.76,35.6L231.08,49.21L231.4,62.43L231.72,70.33L232.04,58.56L232.36,95.5L232.68,47.71L233.01,56.03L233.33,85.1L233.65,59.95L233.97,74.72L234.29,70.96L234.61,47.13L234.93,82.02L235.25,67.69L235.57,28.69L236.54,74.94L236.86,68.8L237.18,88.72L237.5,64.42L237.82,68.92L238.14,70.7L238.46,79.16L238.78,64.24L239.1,72.32L239.42,118.64L240.39,57.93L240.71,67.78L241.35,90.87L241.67,67.16L241.99,53.72L242.31,60.48L242.63,70.62L242.95,76.41L243.28,164.15L243.92,56.42L244.24,94.94L244.56,53.42L244.88,78.79L245.2,72.97L245.52,69.92L246.81,37.37L247.13,71.86L247.77,112.28L248.09,80.64L248.41,30.19L248.73,57.55L249.05,67.06L249.69,93.08L250.02,72.01L250.34,52.46L250.66,104.98L250.98,59.13L251.3,75.07L251.62,80.77L251.94,57.72L252.26,77.52L252.58,104.16L252.9,52.71L253.55,66.56L253.87,52.92L254.19,73.68L254.51,65.81L254.83,54.41L255.15,48.91L255.47,90.46L255.79,91.51L256.11,58.68L256.43,93.67L257.08,90.6L257.4,71.13L258.04,82.21L258.36,47.72L258.68,43.29L259,65.02L259.32,84.93L259.64,59.86L259.96,73.6L260.29,81.92L260.61,55.55L260.93,89.02L261.25,68.31L261.57,60.63L261.89,59.1L262.21,61.48L262.53,84.41L262.85,34.63L263.17,80.51L263.82,73.84L264.14,69.44L264.46,71.45L264.78,68.76L265.1,85.78L265.42,35.97L265.74,85.18L266.06,75.91L267.03,58.86L267.35,83.42L267.67,85.99L267.99,70.97L268.31,41.09L268.63,83.71L268.95,59.77L269.27,62.97L269.59,104L269.91,53.9L270.23,59.86L270.56,83.91L271.2,54.45L271.52,87.27L272.16,65.93L272.48,78.78L272.8,42.89L273.12,58.97L273.44,72.93L274.09,66.95L274.41,92.83L274.73,51.74L275.05,69.47L275.37,72.87L275.69,56.73L276.33,58.63L276.65,81.7L277.3,35.86L277.62,76.05L278.26,53.24L278.58,102.3L278.9,49.97L279.22,51.44L279.54,71.32L279.86,54.24L280.18,77.01L280.51,88.76L280.83,55.01L281.15,78.06L281.47,91.27L281.79,54.25L282.11,58.71L282.43,73.4L283.39,43.9L283.71,99.82L284.04,47.73L284.68,57.28L285,54.89L285.64,53.95L286.28,108.34L286.6,77.07L286.92,75.23L287.24,44.63L287.57,87.93L287.89,63.96L288.21,34.45L288.53,44.75L288.85,81.03L289.81,62.7L290.13,59.74L290.45,113.69L290.78,40.07L291.42,85.19L291.74,53.14L292.06,82.04L292.7,77.71L293.02,54.29L293.66,87.97L293.98,73.96L294.31,96.7L294.63,51.83L294.95,80.78L295.27,73.4L295.59,65.84L295.91,47.62L296.23,66.08L296.55,66.55L296.87,79.19L297.19,61.37L297.52,83.76L297.84,54.19L298.16,45L298.48,58.14L298.8,60.34L299.12,102.59L299.76,48.07L300.08,63.62L300.4,93.36L300.72,61L301.05,85.89L301.37,77.76L301.69,50.18L302.01,53.67L302.33,89.42L303.29,61.6L303.61,71.88L304.58,41.85L304.9,44.15L305.22,75.88L305.54,55.56L305.86,68.49L306.18,96.93L306.5,73.21L307.14,75.08L307.46,58.76L307.79,57.47L308.11,70.61L308.75,73.2L309.07,56.05L309.39,60.26L309.71,84.97L310.03,85.48L310.35,87.97L310.67,56.79L311.32,59.3L311.64,75.94L311.96,57.74L312.28,74.99L312.6,78.56L313.24,86.69L313.56,64L313.88,88.93L314.2,58.61L314.53,70.35L314.85,60.95L315.17,100.24L316.13,45.54L316.45,69.7L316.77,85.47L317.09,75.14L317.41,79.86L317.73,65.16L318.06,82.51L318.38,79.35L318.7,78.79L319.02,70.76L319.34,106.05L319.66,59.48L319.98,42.56L320.94,68.77L321.26,120.75L322.55,57.36L322.87,69.08L323.19,74.55L323.51,64.31L323.83,82.77L324.15,71.07L324.47,61.67L325.12,110.85L325.44,86.61L325.76,71.29L326.08,82.25L326.4,45.87L327.04,95.69L327.36,71L327.68,50.3L328,72.06L328.33,65.12L328.65,66.43L328.97,79.34L329.29,87.61L329.61,71.17L329.93,95.27L330.25,34.59L330.57,82.6L330.89,71.28L331.21,54.17L331.54,67.08L331.86,46.24L332.5,76.86L332.82,43.7L333.46,78.37L333.78,64.35L334.1,80.48L334.74,27.56L335.07,70.14L335.39,74.34L335.71,62.94L336.67,77.57L336.99,59.95L337.31,62.05L337.63,32.75L338.27,74.18L338.6,48.35L339.56,108.03L339.88,78.91L340.52,64.4L340.84,102.44L341.16,91.62L341.48,51.84L342.13,96.36L342.45,57.73L343.09,86.73L343.41,65.41L344.69,101.4L345.01,41.71L345.66,86.14L345.98,78.07L346.3,46.9L347.26,78.25L347.58,56.45L347.9,111.12L348.22,64.18L348.55,87.96L348.87,80.44L349.19,53.8L349.83,88.27L350.15,66.45L351.11,89L351.43,81.61L351.75,104.85L352.08,76.68L352.72,77.3L353.04,61.16L353.36,57.5L353.68,61.18L354,64.62L354.96,61.12L355.28,82.67L356.57,48.86L356.89,54.15L357.85,78.33L358.17,61.75L358.49,104.54L358.82,39.07L359.78,98.77L360.1,67.44L360.42,89.47L360.74,71.75L361.06,58.46L362.99,89.27L363.31,74.22L363.63,75.04L363.95,55.59L364.27,89.3L364.59,51.06L364.91,75.98L365.23,69.29L365.56,80.58L366.52,45.12L366.84,59.83L367.48,86.11L367.8,72.92L368.12,88.41L368.44,88.26L368.76,61.28L369.09,35.6L369.41,65.85L369.73,67.21L370.05,109.61L370.37,92.7L370.69,58.8L371.01,98.21L371.33,64.04L371.65,64.81L371.97,76.91L372.29,53.81L372.62,64.5L372.94,61.23L373.26,46.78L373.58,47.87L373.9,46.77L374.22,77.07L374.54,71.07L374.86,155.34L375.5,130.53L375.83,81.66L376.15,104.87L376.47,52.83L376.79,76.5L377.11,73.09L377.43,34.89L378.07,76.43L378.39,54.33L379.36,92.5L379.68,65.01L380,50.68L380.32,75.68L380.64,83.94L380.96,71.73L381.28,67.97L381.6,73.86L381.92,86.38L382.24,77.4L382.57,60.17L382.89,66.73L383.21,60.3L383.53,46.98L384.49,89.13L384.81,67.64L385.13,93.66L385.45,82.93L385.77,58.45L386.1,59.6L386.42,68.8L386.74,80.2L387.06,57.66L387.7,111.05L388.02,76.71L388.34,69.06L388.66,91.91L388.98,57.63L389.31,80.24L389.63,73.46L389.95,105.24L390.27,47.27L390.59,78.5L391.23,73.23L391.55,92.86L392.19,68.69L392.51,94.77L393.16,80.04L393.48,105L393.8,209.99L394.12,98.21L394.44,78.16L394.76,40.34L395.08,91.74L395.4,96.71L395.72,52.08L396.04,103.36L396.69,88.38L397.01,55.12L397.33,89.7L397.65,52.73L397.97,45.73L398.93,83.24L399.25,67.87L399.58,57.85L399.9,71.88L400.54,96.73L400.86,75.01L401.18,74.23L401.5,40.62L401.82,89.48L402.46,86.79L402.78,73.44L403.11,100.26L403.43,83.21L403.75,66.64L404.07,52.63L404.39,87.7L404.71,55.02L405.03,84.83L405.35,73.22L405.67,111.69L405.99,97.58L406.32,65.39L406.64,68.41L406.96,89.85L407.92,58.14L408.24,58.45L408.56,70.63L408.88,54.58L409.2,71.09L409.52,70L409.85,33.15L410.17,64.45L410.49,74.07L410.81,57.97L411.13,87.96L411.77,69.96L412.09,80.76L412.73,85.62L413.05,84.26L413.38,51.62L413.7,49.97L414.02,68.46L414.34,71.41L414.66,85.26L414.98,67.02L415.3,78.3L415.62,77.35L415.94,75.76L416.26,41.44L416.59,23.06L416.91,96.47L417.23,146.48L417.87,49.96L418.83,73.97L419.15,76.68L419.47,49.86L419.79,107.62L420.44,74.32L420.76,101.15L422.04,43.29L422.36,46.94L422.68,68.6L423.33,20.68L423.65,46.95L424.93,99.54L425.25,85.72L425.89,75.8L426.21,80.05L426.53,102.71L426.86,48.81L427.18,42.25L427.5,88.36L427.82,114.6L428.14,92.82L428.46,69.35L429.74,93.12L430.06,48.48L430.71,42.39L431.35,102.67L431.67,37.22L432.63,88.47L432.95,50.5L434.24,75.84L434.56,62.9L434.88,57.19L435.2,76.86L436.16,21.89L436.48,51.51L437.13,74.57L437.45,40.13L437.77,95.24L438.09,67.3L438.41,58.71L439.05,73.3L439.37,52.77L440.98,97.85L441.3,62.1L441.62,59.55L441.94,73.75L442.26,58.58L442.58,79.9L443.22,101.99L443.54,80.17L443.87,82.9L444.19,75.1L444.51,54.83L444.83,89.19L445.47,80.26L445.79,66.09L446.11,82.97L446.43,76.77L446.75,58.26L447.07,54.66L447.4,41.75L448.04,95.92L448.36,77.17L448.68,94.55L449.32,62.65L449.64,84.31L449.96,88.72L450.28,49.86L450.61,47.19L450.93,78.52L451.25,78.56L451.57,80.8L451.89,58.65L452.21,76.57L452.53,82.07L452.85,94.1L453.17,34.12L453.81,84.94L454.14,54.18L454.46,81.33L454.78,43.47L455.74,85.57L456.06,75.4L456.38,80.52L456.7,63.03L457.02,51.3L457.35,69.04L457.67,58.23L457.99,90.49L458.31,42.25L458.63,54.63L458.95,82.81L459.59,134.2L459.91,58.05L460.23,61.28L460.55,48.07L461.2,85.09L461.52,82.55L461.84,77.39L462.16,80.9L462.48,55.25L463.12,105.97L463.44,71.39L464.08,84.93L464.41,30.74L464.73,91.75L465.37,89.4L465.69,79.07L466.33,99.12L466.65,61.08L466.97,97.7L467.29,80.03L467.62,61.04L467.94,60.48L468.26,65.47L468.58,95.12L468.9,86L469.22,71.67L469.54,83.56L469.86,64.69L470.18,95.08L470.5,74.09L470.82,73.94L471.15,83.44L471.47,65.95L472.43,79.03L472.75,74.46L473.07,47.95L473.39,120.19L473.71,69.36L474.36,71.17L474.68,65.3L475,62.27L475.32,42.44L476.28,83.95L476.6,75.32L476.92,83.71L477.56,57.3L477.89,59.16L478.21,74.18L478.53,63.82L478.85,82.2L479.49,46.94L479.81,88.41L480.77,46.24L481.09,60.24L481.42,72.03L481.74,39.97L482.06,62.33L482.38,99L482.7,47.5L483.02,87.86L483.34,76.41L483.66,76.47L483.98,73.57L484.3,51.55L484.63,69.9L484.95,78.14L485.27,79.39L485.59,54.4L485.91,82.45L486.23,42.99L486.87,55.55L487.19,88.55L487.51,104.57L487.83,88.78L488.16,51.77L488.8,94.02L489.12,67.04L489.44,66.47L489.76,112.92L490.4,58.61L490.72,68.3L491.04,76.84L491.37,52.34L491.69,88.59L492.01,88.29L492.33,68L492.65,93.4L492.97,40.34L493.29,76.01L493.61,51.38L493.93,50.51L494.25,98.99L494.57,86.32L494.9,73.28L495.22,45.41L495.54,69.99L495.86,59.2L496.18,65.5L496.5,55.8L497.14,82.88L497.46,50.03L498.43,95.22L498.75,76.28L499.07,33.83L499.39,56.4L499.71,68.76L500.03,50.3L500.35,75.62L500.67,83.86L500.99,73.6L501.31,33.61L501.64,73.69L501.96,46.29L502.28,52.31L502.92,85.19L503.24,114.03L504.2,73.92L504.52,57.25L504.84,89.88L505.17,81.72L505.49,47.55L506.45,95.37L506.77,44.22L507.73,79.88L508.05,27.83L508.38,87.96L509.02,80.95L509.34,66.46L510.62,104.08L510.94,49.28L511.26,66.22L511.58,313.5L512.55,42.33L512.87,51.46L513.19,55.49L513.51,75.43L513.83,135.54L514.15,27.66L514.47,35.25L514.79,79.26L515.12,78.5L515.44,92.53L516.08,36.23L516.4,72.33L516.72,85.9L517.04,66.96L517.68,52.66L518,62.06L518.65,81L518.97,49.73L519.61,74.46L519.93,49.56L520.57,76.53L520.89,54.26L521.21,42.88L521.53,64.76L521.85,90.88L522.18,56.01L522.82,95.43L523.14,55.43L524.1,74.67L524.42,41.89L524.74,47.07L525.06,74.1L525.39,78.71L525.71,96.11L526.67,69.55L526.99,88.03L527.31,64.5L527.63,73.45L527.95,87.23L528.92,42.11L529.24,67.64L529.56,68.26L529.88,50.09L530.2,66.93L530.52,65.97L530.84,34.38L531.16,81.07L531.48,78.93L531.8,45.64L532.13,75.25L532.45,51.71L532.77,51.86L534.05,135.04L534.37,82.85L534.69,90.6L535.01,38.05L535.66,96.11L535.98,42.7L537.26,84.44L537.58,45.55L538.22,88.15L538.54,40.04L539.19,74.22L539.51,66.65L539.83,77.56L540.47,104.7L540.79,75.36L541.11,101.42L541.43,37.19L542.07,87.71L542.4,49.35L543.36,85.37L543.68,59.4L544,54.76" style="vector-effect: non-scaling-stroke; fill: none; stroke: rgb(31, 119, 180); stroke-opacity: 1; stroke-width: 2px; opacity: 1;"/></g><g class="points"/><g class="text"/></g></g></g><g class="overplot"/><path class="xlines-above crisp" d="M0,0" style="fill: none;"/><path class="ylines-above crisp" d="M0,0" style="fill: none;"/><g class="overlines-above"/><g class="xaxislayer-above"><g class="xtick"><text text-anchor="middle" x="0" y="403" transform="translate(60,0)" style="font-family: 'Open Sans', verdana, arial, sans-serif; font-size: 12px; fill: rgb(68, 68, 68); fill-opacity: 1; white-space: pre;">0</text></g><g class="xtick"><text text-anchor="middle" x="0" y="403" transform="translate(220.47,0)" style="font-family: 'Open Sans', verdana, arial, sans-serif; font-size: 12px; fill: rgb(68, 68, 68); fill-opacity: 1; white-space: pre;">50k</text></g><g class="xtick"><text text-anchor="middle" x="0" y="403" transform="translate(380.94,0)" style="font-family: 'Open Sans', verdana, arial, sans-serif; font-size: 12px; fill: rgb(68, 68, 68); fill-opacity: 1; white-space: pre;">100k</text></g><g class="xtick"><text text-anchor="middle" x="0" y="403" transform="translate(541.4200000000001,0)" style="font-family: 'Open Sans', verdana, arial, sans-serif; font-size: 12px; fill: rgb(68, 68, 68); fill-opacity: 1; white-space: pre;">150k</text></g></g><g class="yaxislayer-above"><g class="ytick"><text text-anchor="end" x="59" y="4.199999999999999" transform="translate(0,369.04)" style="font-family: 'Open Sans', verdana, arial, sans-serif; font-size: 12px; fill: rgb(68, 68, 68); fill-opacity: 1; white-space: pre;">2.5</text></g><g class="ytick"><text text-anchor="end" x="59" y="4.199999999999999" transform="translate(0,318.73)" style="font-family: 'Open Sans', verdana, arial, sans-serif; font-size: 12px; fill: rgb(68, 68, 68); fill-opacity: 1; white-space: pre;">3</text></g><g class="ytick"><text text-anchor="end" x="59" y="4.199999999999999" transform="translate(0,268.41999999999996)" style="font-family: 'Open Sans', verdana, arial, sans-serif; font-size: 12px; fill: rgb(68, 68, 68); fill-opacity: 1; white-space: pre;">3.5</text></g><g class="ytick"><text text-anchor="end" x="59" y="4.199999999999999" transform="translate(0,218.11)" style="font-family: 'Open Sans', verdana, arial, sans-serif; font-size: 12px; fill: rgb(68, 68, 68); fill-opacity: 1; white-space: pre;">4</text></g><g class="ytick"><text text-anchor="end" x="59" y="4.199999999999999" transform="translate(0,167.8)" style="font-family: 'Open Sans', verdana, arial, sans-serif; font-size: 12px; fill: rgb(68, 68, 68); fill-opacity: 1; white-space: pre;">4.5</text></g><g class="ytick"><text text-anchor="end" x="59" y="4.199999999999999" transform="translate(0,117.49000000000001)" style="font-family: 'Open Sans', verdana, arial, sans-serif; font-size: 12px; fill: rgb(68, 68, 68); fill-opacity: 1; white-space: pre;">5</text></g><g class="ytick"><text text-anchor="end" x="59" y="4.199999999999999" transform="translate(0,67.18)" style="font-family: 'Open Sans', verdana, arial, sans-serif; font-size: 12px; fill: rgb(68, 68, 68); fill-opacity: 1; white-space: pre;">5.5</text></g></g><g class="overaxes-above"/></g></g><g class="polarlayer"/><g class="ternarylayer"/><g class="geolayer"/><g class="pielayer"/><g class="glimages"/><defs id="topdefs-245270"><g class="clips"/><clipPath id="legend245270"><rect width="73" height="29" x="0" y="0"/></clipPath></defs><g class="layer-above"><g class="imagelayer"/><g class="shapelayer"/></g><g class="infolayer"><g class="legend" pointer-events="all" transform="translate(614.88, 60)"><rect class="bg" shape-rendering="crispEdges" width="73" height="29" x="0" y="0" style="stroke: rgb(68, 68, 68); stroke-opacity: 1; fill: rgb(255, 255, 255); fill-opacity: 1; stroke-width: 0px;"/><g class="scrollbox" transform="translate(0, 0)" clip-path="url(#legend245270)"><g class="groups"><g class="traces" transform="translate(0, 14.5)" style="opacity: 1;"><g class="layers" style="opacity: 1;"><g class="legendfill"/><g class="legendlines"><path class="js-line" d="M5,0h30" style="fill: none; stroke: rgb(31, 119, 180); stroke-opacity: 1; stroke-width: 2px;"/></g><g class="legendsymbols"><g class="legendpoints"/></g></g><text class="legendtext user-select-none" text-anchor="start" x="40" y="4.680000000000001" style="font-family: 'Open Sans', verdana, arial, sans-serif; font-size: 12px; fill: rgb(68, 68, 68); fill-opacity: 1; white-space: pre;">train</text><rect class="legendtoggle" pointer-events="all" x="0" y="-9.5" width="113" height="19" style="cursor: pointer; fill: rgb(0, 0, 0); fill-opacity: 0;"/></g></g></g><rect class="scrollbar" rx="20" ry="3" width="0" height="0" x="0" y="0" style="fill: rgb(128, 139, 164); fill-opacity: 1;"/></g><g class="g-gtitle"><text class="gtitle" x="350" y="30" text-anchor="middle" dy="0em" style="font-family: 'Open Sans', verdana, arial, sans-serif; font-size: 17px; fill: rgb(68, 68, 68); opacity: 1; font-weight: normal; white-space: pre;">Loss</text></g><g class="g-xtitle"><text class="xtitle" x="332" y="442" text-anchor="middle" style="font-family: 'Open Sans', verdana, arial, sans-serif; font-size: 14px; fill: rgb(68, 68, 68); opacity: 1; font-weight: normal; white-space: pre;">batch</text></g><g class="g-ytitle"><text class="ytitle" transform="rotate(-90,22,225)" x="22" y="225" text-anchor="middle" style="font-family: 'Open Sans', verdana, arial, sans-serif; font-size: 14px; fill: rgb(68, 68, 68); opacity: 1; font-weight: normal; white-space: pre;">loss</text></g></g></svg>