<svg class="main-svg" xmlns="http://www.w3.org/2000/svg" xmlns:xlink="http://www.w3.org/1999/xlink" width="700" height="450" style="" viewBox="0 0 700 450"><rect x="0" y="0" width="700" height="450" style="fill: rgb(255, 255, 255); fill-opacity: 1;"/><defs id="defs-bfe685"><g class="clips"><clipPath id="clipbfe685xyplot" class="plotclip"><rect width="544" height="330"/></clipPath><clipPath class="axesclip" id="clipbfe685x"><rect x="60" y="0" width="544" height="450"/></clipPath><clipPath class="axesclip" id="clipbfe685y"><rect x="0" y="60" width="700" height="330"/></clipPath><clipPath class="axesclip" id="clipbfe685xy"><rect x="60" y="60" width="544" height="330"/></clipPath></g><g class="gradients"/></defs><g class="bglayer"/><g class="layer-below"><g class="imagelayer"/><g class="shapelayer"/></g><g class="cartesianlayer"><g class="subplot xy"><g class="layer-subplot"><g class="shapelayer"/><g class="imagelayer"/></g><g class="gridlayer"><g class="x"><path class="xgrid crisp" transform="translate(192.68,0)" d="M0,60v330" style="stroke: rgb(238, 238, 238); stroke-opacity: 1; stroke-width: 1px;"/><path class="xgrid crisp" transform="translate(325.37,0)" d="M0,60v330" style="stroke: rgb(238, 238, 238); stroke-opacity: 1; stroke-width: 1px;"/><path class="xgrid crisp" transform="translate(458.05,0)" d="M0,60v330" style="stroke: rgb(238, 238, 238); stroke-opacity: 1; stroke-width: 1px;"/><path class="xgrid crisp" transform="translate(590.73,0)" d="M0,60v330" style="stroke: rgb(238, 238, 238); stroke-opacity: 1; stroke-width: 1px;"/></g><g class="y"><path class="ygrid crisp" transform="translate(0,377.53)" d="M60,0h544" style="stroke: rgb(238, 238, 238); stroke-opacity: 1; stroke-width: 1px;"/><path class="ygrid crisp" transform="translate(0,317.6)" d="M60,0h544" style="stroke: rgb(238, 238, 238); stroke-opacity: 1; stroke-width: 1px;"/><path class="ygrid crisp" transform="translate(0,257.66999999999996)" d="M60,0h544" style="stroke: rgb(238, 238, 238); stroke-opacity: 1; stroke-width: 1px;"/><path class="ygrid crisp" transform="translate(0,197.75)" d="M60,0h544" style="stroke: rgb(238, 238, 238); stroke-opacity: 1; stroke-width: 1px;"/><path class="ygrid crisp" transform="translate(0,137.82)" d="M60,0h544" style="stroke: rgb(238, 238, 238); stroke-opacity: 1; stroke-width: 1px;"/><path class="ygrid crisp" transform="translate(0,77.9)" d="M60,0h544" style="stroke: rgb(238, 238, 238); stroke-opacity: 1; stroke-width: 1px;"/></g></g><g class="zerolinelayer"><path class="xzl zl crisp" transform="translate(60,0)" d="M0,60v330" style="stroke: rgb(68, 68, 68); stroke-opacity: 1; stroke-width: 1px;"/></g><path class="xlines-below"/><path class="ylines-below"/><g class="overlines-below"/><g class="xaxislayer-below"/><g class="yaxislayer-below"/><g class="overaxes-below"/><g class="plot" transform="translate(60, 60)" clip-path="url(#clipbfe685xyplot)"><g class="scatterlayer mlayer"><g class="trace scatter trace79b1a5" style="stroke-miterlimit: 2; opacity: 1;"><g class="fills"/><g class="errorbars"/><g class="lines"><path class="js-line" d="M0,16.5L1.33,19.82L2.65,20.74L3.98,34L5.31,26.78L7.96,44.93L9.29,39.16L10.61,32.91L11.94,34.15L13.27,60.27L14.6,31.04L15.92,47.99L17.25,53.77L18.58,40.28L19.9,36L21.23,38.07L22.56,56.65L23.88,42.56L25.21,40.53L27.86,55.06L29.19,77.63L31.84,36.37L33.17,52.28L34.5,64.62L35.82,59.14L37.15,48.45L38.48,46.77L39.8,64.89L41.13,27.59L42.46,68.43L43.79,61.44L45.11,91.91L46.44,70.46L47.77,70.49L49.09,37.34L50.42,65.81L51.75,61.17L53.07,63.27L54.4,56.24L55.73,64.75L57.05,60.26L58.38,49.06L59.71,54.82L61.03,94.63L62.36,40.13L63.69,57.49L65.01,63.48L66.34,49.15L67.67,47.07L70.32,77.42L71.65,54.91L72.98,79.23L74.3,53.52L75.63,66.57L76.96,59.55L79.61,65.59L80.94,74.83L82.26,94.19L83.59,59.07L84.92,58.45L86.24,63.96L87.57,129.32L88.9,56.24L90.22,62.54L91.55,75.52L92.88,46.69L94.2,60.78L96.86,61.57L98.19,48.45L99.51,106.32L100.84,79.22L102.17,88.13L103.49,56.23L104.82,74.82L106.15,73.88L107.47,69.26L108.8,72.3L110.13,70.16L111.45,74.93L112.78,87.03L114.11,67.41L115.43,58.8L116.76,60.84L118.09,82.4L119.41,74.81L120.74,71.32L122.07,83.67L123.4,79.59L124.72,90.82L126.05,85.02L127.38,63.02L128.7,70.35L130.03,61.83L131.36,52.08L132.68,93.92L136.66,63.65L137.99,61.37L139.32,68.59L140.64,69.71L141.97,63.24L143.3,79.72L144.62,99.9L145.95,66.63L147.28,68.09L148.6,91.53L149.93,82.69L151.26,98.61L152.59,97.63L153.91,73.41L156.57,102.16L157.89,89.81L159.22,64.55L160.55,63.25L161.87,99.36L163.2,69.44L164.53,64.94L165.85,84.2L167.18,73.82L168.51,86.2L169.83,109.01L171.16,94.43L172.49,81.5L173.81,51.27L175.14,89.38L176.47,78.08L177.8,85.72L179.12,119.74L180.45,85.99L181.78,103.88L184.43,78.77L185.76,94.75L187.08,94.03L188.41,86.5L189.74,72.1L191.06,67.87L192.39,78.99L193.72,78.66L195.04,81.42L196.37,69.73L197.7,74.7L199.02,55.45L201.68,109.3L203,69.7L204.33,52.55L205.66,94.91L206.99,70.44L208.31,67.52L209.64,62.24L210.97,71.03L212.29,66.81L213.62,80.39L214.95,73.88L216.27,90.02L217.6,68.05L218.93,87.08L220.25,68.88L221.58,95.32L222.91,100.47L224.23,81.51L225.56,59.49L226.89,80.17L229.54,101.42L230.87,88.84L232.2,84.26L233.52,74.57L234.85,83.54L236.18,76.55L237.5,120.36L238.83,83.51L240.16,73.7L241.48,72.72L242.81,98.17L244.14,86.5L245.46,67.75L246.79,86.31L249.44,65.23L250.77,86.2L252.1,96.68L253.42,78.62L256.08,123.82L257.4,93.35L260.06,52.62L261.39,101.66L262.71,79.6L264.04,99.71L265.37,98.39L266.69,72.38L268.02,75.95L269.35,82.45L270.67,83.96L272,112L273.33,55.69L274.65,74.93L275.98,84.71L277.31,78.34L278.63,98.57L279.96,103.13L281.29,129.7L282.61,110.47L285.27,84.6L286.6,99.07L287.92,64.28L289.25,87.68L290.58,81.33L291.9,97.71L293.23,129.68L294.56,72.64L297.21,103.85L298.54,92.22L301.19,116.81L302.52,110.53L303.84,89.59L305.17,80.71L306.5,91.88L307.82,70.87L309.15,111.96L310.48,86.92L311.8,83.17L313.13,128.1L314.46,115.22L315.79,68.78L317.11,72.14L318.44,100.71L319.77,84.6L321.09,99.28L322.42,105.49L323.75,83.31L325.07,80.13L326.4,85.85L327.73,89.6L329.05,68.79L331.71,101.71L333.03,84.88L334.36,87.64L335.69,121.9L338.34,62.72L339.67,131.89L341,77.71L342.32,95.01L343.65,69.95L344.98,105.08L346.3,87.43L347.63,134L348.96,85.89L350.28,107.72L351.61,118.62L352.94,69.34L354.26,149.08L355.59,103.89L356.92,102.67L358.24,94.59L359.57,105.46L360.9,78.57L362.22,89.97L363.55,77.27L364.88,112.31L366.2,102.99L367.53,85.07L368.86,95.13L370.19,79.69L371.51,74.81L372.84,117.11L374.17,95.99L375.49,78.68L376.82,98.28L378.15,118.07L379.47,116.06L380.8,94.75L382.13,100.83L383.45,102.95L384.78,101.37L386.11,89.27L387.43,122.58L388.76,76.43L390.09,78.27L391.41,85.82L392.74,99.35L394.07,90.82L395.4,99.7L396.72,103.99L398.05,116.57L399.38,104.5L400.7,117.18L402.03,98.49L403.36,115.62L404.68,92.07L406.01,112.58L407.34,70.58L408.66,101.34L409.99,105.86L411.32,85.28L412.64,77.84L413.97,98.82L415.3,98.4L416.62,102.82L417.95,101.54L419.28,109.44L420.6,103.1L421.93,104.54L423.26,136.47L424.59,99.32L425.91,125.83L427.24,97.62L428.57,110.97L429.89,313.5L432.55,116.76L433.87,154.09L435.2,54.91L436.53,85.33L437.85,105.38L439.18,154.54L440.51,74.41L441.83,107.05L443.16,103.06L444.49,85.55L445.81,93.31L447.14,107.36L448.47,162.34L449.8,111.84L452.45,95.97L453.78,183.45L455.1,100.79L456.43,71.49L459.08,111.82L460.41,103.12L461.74,121.16L463.06,96.64L464.39,119.85L465.72,98.63L467.04,110.85L468.37,106.67L469.7,104.67L471.02,107.82L472.35,126.16L473.68,91.31L475,115.05L476.33,83.45L477.66,92.56L478.99,110.33L480.31,84.52L481.64,75.89L482.97,121.97L484.29,96.08L485.62,104.8L486.95,82L488.27,97.24L489.6,126.11L490.93,127.79L492.25,127.74L493.58,79.28L494.91,95.97L496.23,109.89L497.56,107.42L498.89,84.66L500.21,101.87L501.54,104.58L502.87,139.31L504.2,80.55L505.52,116.58L506.85,66.9L508.18,120.91L509.5,83.85L510.83,80.95L512.16,111.15L513.48,120.11L514.81,115.19L516.14,142.74L517.46,94.56L518.79,85.6L520.12,114.02L521.44,101.24L522.77,120.65L524.1,212.43L525.42,126.04L526.75,106.05L528.08,128.55L529.4,93.07L530.73,119.24L532.06,205.47L533.39,63.92L534.71,90.32L537.37,78.77L538.69,134.73L540.02,66.67L541.35,107.36L542.67,88.18L544,93.73" style="vector-effect: non-scaling-stroke; fill: none; stroke: rgb(31, 119, 180); stroke-opacity: 1; stroke-width: 2px; opacity: 1;"/></g><g class="points"/><g class="text"/></g></g></g><g class="overplot"/><path class="xlines-above crisp" d="M0,0" style="fill: none;"/><path class="ylines-above crisp" d="M0,0" style="fill: none;"/><g class="overlines-above"/><g class="xaxislayer-above"><g class="xtick"><text text-anchor="middle" x="0" y="403" transform="translate(60,0)" style="font-family: 'Open Sans', verdana, arial, sans-serif; font-size: 12px; fill: rgb(68, 68, 68); fill-opacity: 1; white-space: pre;">0</text></g><g class="xtick"><text text-anchor="middle" x="0" y="403" transform="translate(192.68,0)" style="font-family: 'Open Sans', verdana, arial, sans-serif; font-size: 12px; fill: rgb(68, 68, 68); fill-opacity: 1; white-space: pre;">10k</text></g><g class="xtick"><text text-anchor="middle" x="0" y="403" transform="translate(325.37,0)" style="font-family: 'Open Sans', verdana, arial, sans-serif; font-size: 12px; fill: rgb(68, 68, 68); fill-opacity: 1; white-space: pre;">20k</text></g><g class="xtick"><text text-anchor="middle" x="0" y="403" transform="translate(458.05,0)" style="font-family: 'Open Sans', verdana, arial, sans-serif; font-size: 12px; fill: rgb(68, 68, 68); fill-opacity: 1; white-space: pre;">30k</text></g><g class="xtick"><text text-anchor="middle" x="0" y="403" transform="translate(590.73,0)" style="font-family: 'Open Sans', verdana, arial, sans-serif; font-size: 12px; fill: rgb(68, 68, 68); fill-opacity: 1; white-space: pre;">40k</text></g></g><g class="yaxislayer-above"><g class="ytick"><text text-anchor="end" x="59" y="4.199999999999999" transform="translate(0,377.53)" style="font-family: 'Open Sans', verdana, arial, sans-serif; font-size: 12px; fill: rgb(68, 68, 68); fill-opacity: 1; white-space: pre;">4.8</text></g><g class="ytick"><text text-anchor="end" x="59" y="4.199999999999999" transform="translate(0,317.6)" style="font-family: 'Open Sans', verdana, arial, sans-serif; font-size: 12px; fill: rgb(68, 68, 68); fill-opacity: 1; white-space: pre;">4.9</text></g><g class="ytick"><text text-anchor="end" x="59" y="4.199999999999999" transform="translate(0,257.66999999999996)" style="font-family: 'Open Sans', verdana, arial, sans-serif; font-size: 12px; fill: rgb(68, 68, 68); fill-opacity: 1; white-space: pre;">5</text></g><g class="ytick"><text text-anchor="end" x="59" y="4.199999999999999" transform="translate(0,197.75)" style="font-family: 'Open Sans', verdana, arial, sans-serif; font-size: 12px; fill: rgb(68, 68, 68); fill-opacity: 1; white-space: pre;">5.1</text></g><g class="ytick"><text text-anchor="end" x="59" y="4.199999999999999" transform="translate(0,137.82)" style="font-family: 'Open Sans', verdana, arial, sans-serif; font-size: 12px; fill: rgb(68, 68, 68); fill-opacity: 1; white-space: pre;">5.2</text></g><g class="ytick"><text text-anchor="end" x="59" y="4.199999999999999" transform="translate(0,77.9)" style="font-family: 'Open Sans', verdana, arial, sans-serif; font-size: 12px; fill: rgb(68, 68, 68); fill-opacity: 1; white-space: pre;">5.3</text></g></g><g class="overaxes-above"/></g></g><g class="polarlayer"/><g class="ternarylayer"/><g class="geolayer"/><g class="pielayer"/><g class="glimages"/><defs id="topdefs-bfe685"><g class="clips"/><clipPath id="legendbfe685"><rect width="73" height="29" x="0" y="0"/></clipPath></defs><g class="layer-above"><g class="imagelayer"/><g class="shapelayer"/></g><g class="infolayer"><g class="legend" pointer-events="all" transform="translate(614.88, 60)"><rect class="bg" shape-rendering="crispEdges" width="73" height="29" x="0" y="0" style="stroke: rgb(68, 68, 68); stroke-opacity: 1; fill: rgb(255, 255, 255); fill-opacity: 1; stroke-width: 0px;"/><g class="scrollbox" transform="translate(0, 0)" clip-path="url(#legendbfe685)"><g class="groups"><g class="traces" transform="translate(0, 14.5)" style="opacity: 1;"><g class="layers" style="opacity: 1;"><g class="legendfill"/><g class="legendlines"><path class="js-line" d="M5,0h30" style="fill: none; stroke: rgb(31, 119, 180); stroke-opacity: 1; stroke-width: 2px;"/></g><g class="legendsymbols"><g class="legendpoints"/></g></g><text class="legendtext user-select-none" text-anchor="start" x="40" y="4.680000000000001" style="font-family: 'Open Sans', verdana, arial, sans-serif; font-size: 12px; fill: rgb(68, 68, 68); fill-opacity: 1; white-space: pre;">train</text><rect class="legendtoggle" pointer-events="all" x="0" y="-9.5" width="113" height="19" style="cursor: pointer; fill: rgb(0, 0, 0); fill-opacity: 0;"/></g></g></g><rect class="scrollbar" rx="20" ry="3" width="0" height="0" x="0" y="0" style="fill: rgb(128, 139, 164); fill-opacity: 1;"/></g><g class="g-gtitle"><text class="gtitle" x="350" y="30" text-anchor="middle" dy="0em" style="font-family: 'Open Sans', verdana, arial, sans-serif; font-size: 17px; fill: rgb(68, 68, 68); opacity: 1; font-weight: normal; white-space: pre;">Loss</text></g><g class="g-xtitle"><text class="xtitle" x="332" y="442" text-anchor="middle" style="font-family: 'Open Sans', verdana, arial, sans-serif; font-size: 14px; fill: rgb(68, 68, 68); opacity: 1; font-weight: normal; white-space: pre;">batch</text></g><g class="g-ytitle"><text class="ytitle" transform="rotate(-90,22,225)" x="22" y="225" text-anchor="middle" style="font-family: 'Open Sans', verdana, arial, sans-serif; font-size: 14px; fill: rgb(68, 68, 68); opacity: 1; font-weight: normal; white-space: pre;">loss</text></g></g></svg>