<svg class="main-svg" xmlns="http://www.w3.org/2000/svg" xmlns:xlink="http://www.w3.org/1999/xlink" width="700" height="450" style="" viewBox="0 0 700 450"><rect x="0" y="0" width="700" height="450" style="fill: rgb(255, 255, 255); fill-opacity: 1;"/><defs id="defs-987592"><g class="clips"><clipPath id="clip987592xyplot" class="plotclip"><rect width="544" height="330"/></clipPath><clipPath class="axesclip" id="clip987592x"><rect x="60" y="0" width="544" height="450"/></clipPath><clipPath class="axesclip" id="clip987592y"><rect x="0" y="60" width="700" height="330"/></clipPath><clipPath class="axesclip" id="clip987592xy"><rect x="60" y="60" width="544" height="330"/></clipPath></g><g class="gradients"/></defs><g class="bglayer"/><g class="layer-below"><g class="imagelayer"/><g class="shapelayer"/></g><g class="cartesianlayer"><g class="subplot xy"><g class="layer-subplot"><g class="shapelayer"/><g class="imagelayer"/></g><g class="gridlayer"><g class="x"><path class="xgrid crisp" transform="translate(226.74,0)" d="M0,60v330" style="stroke: rgb(238, 238, 238); stroke-opacity: 1; stroke-width: 1px;"/><path class="xgrid crisp" transform="translate(393.82,0)" d="M0,60v330" style="stroke: rgb(238, 238, 238); stroke-opacity: 1; stroke-width: 1px;"/><path class="xgrid crisp" transform="translate(560.89,0)" d="M0,60v330" style="stroke: rgb(238, 238, 238); stroke-opacity: 1; stroke-width: 1px;"/></g><g class="y"><path class="ygrid crisp" transform="translate(0,372.74)" d="M60,0h544" style="stroke: rgb(238, 238, 238); stroke-opacity: 1; stroke-width: 1px;"/><path class="ygrid crisp" transform="translate(0,332.31)" d="M60,0h544" style="stroke: rgb(238, 238, 238); stroke-opacity: 1; stroke-width: 1px;"/><path class="ygrid crisp" transform="translate(0,291.89)" d="M60,0h544" style="stroke: rgb(238, 238, 238); stroke-opacity: 1; stroke-width: 1px;"/><path class="ygrid crisp" transform="translate(0,251.46)" d="M60,0h544" style="stroke: rgb(238, 238, 238); stroke-opacity: 1; stroke-width: 1px;"/><path class="ygrid crisp" transform="translate(0,211.03)" d="M60,0h544" style="stroke: rgb(238, 238, 238); stroke-opacity: 1; stroke-width: 1px;"/><path class="ygrid crisp" transform="translate(0,170.61)" d="M60,0h544" style="stroke: rgb(238, 238, 238); stroke-opacity: 1; stroke-width: 1px;"/><path class="ygrid crisp" transform="translate(0,130.18)" d="M60,0h544" style="stroke: rgb(238, 238, 238); stroke-opacity: 1; stroke-width: 1px;"/><path class="ygrid crisp" transform="translate(0,89.76)" d="M60,0h544" style="stroke: rgb(238, 238, 238); stroke-opacity: 1; stroke-width: 1px;"/></g></g><g class="zerolinelayer"/><path class="xlines-below"/><path class="ylines-below"/><g class="overlines-below"/><g class="xaxislayer-below"/><g class="yaxislayer-below"/><g class="overaxes-below"/><g class="plot" transform="translate(60, 60)" clip-path="url(#clip987592xyplot)"><g class="scatterlayer mlayer"><g class="trace scatter traceb1d805" style="stroke-miterlimit: 2; opacity: 1;"><g class="fills"/><g class="errorbars"/><g class="lines"><path class="js-line" d="M0,55.02L1.67,81.76L2,66.11L2.34,56.14L2.67,75.18L3.01,56.14L3.34,91.51L3.68,47.5L4.01,74.53L4.34,64.64L5.35,112.47L5.68,54.4L6.35,68.15L6.68,98L7.02,66.57L7.35,84.16L7.69,100.96L8.02,106.44L8.35,84.97L8.69,66.68L9.02,81.4L9.36,77.56L9.69,77.46L10.02,63.67L11.03,110.94L11.36,56.61L11.7,99.18L12.03,95.33L12.36,71.29L13.37,98.48L13.7,97.3L14.03,103.13L14.37,67.51L14.7,88.13L15.04,59.32L16.04,93.55L16.37,80.09L16.71,79.87L17.04,105.01L17.38,103L17.71,105.35L18.04,94.54L18.38,102.57L18.71,52.98L19.05,100.08L19.38,90.72L19.71,78.1L20.38,94.83L20.72,135.34L21.05,72.95L21.72,86.35L22.05,107.3L22.39,75.06L22.72,145.92L23.06,88.7L23.72,101.06L24.06,100.69L24.39,117.25L24.73,105.87L25.06,68.79L25.4,80.88L25.73,67.17L26.06,80.78L26.4,66.56L27.73,114.86L28.07,90.31L28.4,74.95L28.74,99.61L29.07,75.61L29.41,111.59L29.74,55.97L30.07,96.59L30.41,75.65L30.74,96.62L31.41,96.13L31.74,75.79L32.41,85.71L32.75,103.65L33.08,57.53L33.42,75.52L33.75,88.35L34.08,124.37L34.42,49.75L34.75,114.16L35.09,80.03L35.42,77.85L36.09,108.41L36.42,89.34L36.76,107.55L37.09,86.21L37.43,78.98L37.76,107.69L38.09,102.91L38.43,58.27L38.76,87.59L39.43,82.74L39.76,79.67L40.43,98.96L40.77,89.59L41.1,91.16L41.43,101.6L41.77,73.61L42.1,99.27L42.44,95.98L42.77,80.31L43.11,135.36L43.44,84.02L43.77,82.58L45.11,121.55L45.44,113.45L46.45,80.7L46.78,79.26L47.45,90.89L47.78,84.15L48.12,83.34L48.45,86.72L48.79,102.97L49.12,75.47L49.45,111.4L49.79,106.6L50.12,57.49L51.13,105.59L51.46,82.08L51.79,80.54L52.13,92.73L52.46,65.03L52.8,136.01L53.13,57.57L53.46,98.7L53.8,102.32L54.13,107.02L54.47,90.62L54.8,64.28L55.14,102.19L55.47,100.8L55.8,106.26L56.14,121.1L56.47,71.02L56.81,95.7L57.47,90.53L57.81,89.76L58.14,97.45L58.48,87.19L58.81,77.37L59.14,88.08L59.48,95.3L59.81,93.27L60.15,100.02L60.48,97.28L60.82,73.57L61.15,81.54L61.48,116.24L62.15,98.26L62.49,72.38L62.82,61.04L63.15,81.2L63.49,69.64L63.82,103.72L64.16,145.43L64.49,87.91L64.83,74.81L65.16,97.29L65.49,97.97L65.83,88.94L66.16,89.56L66.5,79.71L66.83,102.12L67.16,84.57L67.5,94.15L67.83,95.47L68.17,104.29L68.84,80.78L69.17,94.91L69.84,117.09L70.17,75L70.84,118.87L71.17,76.01L71.51,125.38L71.84,93.38L72.18,95.16L72.51,105.11L72.85,99.86L73.18,70.5L73.51,120.96L73.85,103.58L74.18,53.38L74.85,123.72L75.18,69.64L75.85,128.59L76.19,109.26L76.52,146.53L77.19,100.18L77.52,100.26L77.86,93.15L78.19,107.87L78.53,88.86L78.86,85.85L79.19,143.72L80.2,95.35L80.53,94.14L80.86,87.45L81.2,98L81.53,99.29L81.87,58.77L82.2,109.88L82.87,100.02L83.2,100.55L83.87,123.49L84.21,117.13L84.54,92.35L85.21,124.75L85.54,80.08L86.21,106.56L86.55,79.75L86.88,108.79L87.21,96.95L87.55,66.64L88.22,101.33L88.55,70L89.22,105.58L89.55,87.06L89.89,62.22L90.22,112.89L90.56,94.76L90.89,81.62L91.56,117.22L91.89,95.39L92.23,68.43L92.56,90.12L92.89,85.66L93.56,142.97L93.9,69.5L94.57,109.52L94.9,77.06L95.57,89.84L95.9,88.08L96.24,114.64L96.9,73.93L97.57,74.53L97.91,97.15L98.24,94.71L98.57,102.37L99.24,95.19L99.58,117.09L99.91,73.16L100.25,105.01L100.58,89.85L100.91,72.79L101.25,82.73L101.58,101.42L101.92,94.69L102.58,115.94L102.92,101.15L103.25,104.84L103.59,51.32L104.26,129.54L104.59,77.11L104.92,105.83L105.26,91.3L105.59,96.76L106.26,62L106.59,101.05L106.93,92.13L107.26,98.11L107.6,56.82L108.27,107.34L108.6,64.14L109.27,102.44L109.6,97.47L109.94,86.03L110.27,107.44L110.6,95.47L110.94,83.4L112.61,115.94L112.94,97.35L113.28,90.92L113.61,112.14L114.61,70.98L114.95,87.56L115.95,101.27L116.29,60.31L116.62,57.57L116.95,109.75L117.29,77.21L117.62,114.82L117.96,96.78L118.29,112.92L118.62,108.07L118.96,87.11L119.29,112.13L119.63,89.29L119.96,95.54L120.29,107.14L120.63,106.19L120.96,81.43L121.3,91.71L121.63,127.22L121.97,77.39L122.3,120.84L122.63,97.28L122.97,114.22L123.3,87.25L123.64,88.08L123.97,93.9L124.3,111.57L124.64,77.14L124.97,103.27L125.64,78.5L125.98,123.1L126.64,120.93L126.98,95.83L127.65,114.67L127.98,84.35L128.31,112.16L128.65,92.91L128.98,84.02L129.32,107.32L129.65,104.49L129.99,98.75L130.32,101.9L130.65,97.78L130.99,117.91L131.32,80.26L131.66,106.04L131.99,95.32L132.66,84.13L132.99,120.46L133.33,75.63L134,116.38L134.33,114.37L134.66,99.43L135,74.71L135.33,129.03L135.67,129.18L136,125.4L136.33,123.5L136.67,98.36L137,95.28L137.34,124.69L137.67,101.35L138,135.62L138.34,80.27L138.67,92.24L139.01,132.65L139.34,90.17L140.01,99.03L140.34,117.9L140.68,121.26L141.01,104.09L142.35,51.32L142.68,103.01L143.02,78.76L143.35,123.13L144.35,93.18L144.69,96.11L145.36,79.86L145.69,73.57L146.36,117.4L146.69,90.54L147.03,69.93L147.36,112.15L148.36,125.42L148.7,102.89L149.03,86.03L149.37,123.23L150.37,79.33L150.7,93.47L151.04,98.56L151.37,128.41L152.71,62.7L153.04,90.98L153.71,89.65L154.04,152.41L155.05,82.69L155.38,112.55L155.71,63.03L156.05,93.76L156.38,82.21L156.72,119.38L157.05,79.38L157.39,91.77L157.72,80.47L158.05,99.45L158.39,149.26L158.72,89.39L159.06,89.17L159.39,137.54L159.72,109.12L160.06,96.54L160.39,118.54L160.73,98.64L161.06,86.2L161.73,110.33L162.06,102.37L162.4,81.66L162.73,119.82L163.07,93.25L163.4,102.87L164.07,81.22L164.4,91.36L164.74,87.96L165.07,105.73L165.41,103.36L165.74,90.87L166.07,114.44L166.41,93.41L166.74,75.17L167.08,129.15L167.41,86.77L167.74,92.38L168.08,135.28L168.41,122.18L168.75,88.24L169.08,130.65L169.42,92.37L169.75,99.9L170.08,65.12L170.42,112.94L171.09,69.84L171.42,108.68L172.42,86.4L172.76,88.14L173.09,83.11L173.43,104.92L173.76,72.86L174.43,93.45L174.76,87.5L175.1,69.43L175.76,118.38L176.1,83.99L176.43,78.86L176.77,99.49L177.1,80.65L177.43,103.9L177.77,99.98L178.1,85.75L178.44,89.83L178.77,130.68L179.44,88.49L179.77,99.57L180.11,86.65L180.44,86.91L180.78,68.2L181.11,108.85L181.44,98.7L181.78,80.03L182.45,102.32L182.78,77.73L184.12,121.27L184.45,98.75L185.79,78.62L186.12,133.87L186.46,125.66L186.79,138.27L187.13,77.55L187.46,100.44L187.79,112.99L188.46,87.54L188.8,112.54L189.46,75.76L189.8,110.5L190.47,104.73L190.8,65.77L191.14,115.42L191.47,77.34L191.8,95.7L192.14,132.95L192.47,116.31L192.81,60.98L193.47,109.37L193.81,106.85L194.14,101.76L194.81,67.29L195.14,113.96L195.48,94.69L195.81,96.59L196.15,102.17L196.48,102.77L196.82,136.59L197.15,87.13L197.48,97.75L197.82,108.6L198.49,85.24L198.82,96.67L199.15,91.12L199.49,105.31L199.82,104.35L200.16,90.52L200.49,91.32L200.83,103.62L201.16,81.66L201.49,130.57L202.16,72.63L202.5,142.49L203.5,83.14L203.83,83.24L204.17,113.19L204.5,97.64L204.84,99.07L205.17,124.86L205.5,98.87L205.84,69.33L206.17,105.78L206.84,72.22L207.17,100.65L207.51,90.89L207.84,86.06L208.18,88.89L208.51,71.2L208.85,104.25L209.51,103.47L209.85,125.56L210.18,85.99L210.52,104.72L210.85,100.48L211.18,110.75L211.52,94.29L211.85,107.73L212.19,66.81L213.19,118.56L213.52,88.58L214.19,96.34L214.53,105.87L214.86,124.35L215.19,78.97L216.2,123.68L216.53,101.63L216.86,73.97L217.2,86.15L217.53,101.15L217.87,108.06L218.54,104.19L218.87,73.74L219.2,109.65L219.54,108.6L219.87,103.18L220.21,113.91L220.87,94.54L221.21,102.87L221.54,92.08L221.88,108.21L222.21,79.46L222.55,98.76L222.88,121.25L223.21,123.27L223.55,101.47L223.88,79.66L224.22,103.55L224.55,104.84L224.88,102.43L225.55,122.01L226.22,90.35L226.56,104.95L226.89,104.9L227.56,113.06L227.89,108.7L228.23,82.23L228.89,98.53L229.23,81.7L229.56,87.97L229.9,116.51L230.23,132.02L230.57,115.23L230.9,82.74L231.23,113.37L231.57,47.17L232.24,153.85L232.57,112.02L232.9,93.41L233.24,85.46L233.57,132.6L234.57,84.54L234.91,97.1L235.24,103.56L235.91,72.72L236.25,91.52L236.58,92.91L237.25,120.92L237.58,109.18L237.92,96.84L238.58,113.94L238.92,88.01L239.25,73.18L239.59,97.38L239.92,137.9L240.26,133.71L240.59,84.02L240.92,108.53L241.59,103.04L241.93,126.14L242.93,71.51L243.26,119.78L243.6,100.32L243.93,113.88L244.27,120.09L244.93,87.83L245.27,102.62L245.6,126.55L245.94,53.04L246.27,99.98L246.94,90.95L247.27,87.01L247.61,116.65L247.94,97.13L248.28,75.95L248.94,80.23L249.28,100.64L249.61,68.86L249.95,80.74L250.28,89.84L250.61,73.44L250.95,89.15L251.28,109.75L251.95,63.16L252.29,100.97L253.62,81.8L253.96,113.2L254.62,102.58L254.96,108.75L255.29,72.29L255.63,87.96L255.96,111.71L256.29,79.5L256.63,94.29L256.96,129.47L257.3,90.99L257.97,92.83L258.3,111.65L258.63,92.99L258.97,124.39L259.3,108.42L259.64,133.49L260.3,92.07L260.64,115.5L260.97,76.66L261.31,125.55L261.98,70.61L262.31,98.82L262.64,87.95L262.98,106.26L263.31,84.82L263.65,84.5L263.98,84.46L264.31,142.44L264.65,98.25L264.98,138.86L265.65,107.09L266.32,114.66L266.65,93.12L267.32,110.75L267.66,102.34L267.99,93.47L268.32,77.94L268.66,100.9L268.99,121L269.33,63.87L269.66,92.44L270,88.7L270.33,74.2L270.66,114.73L271,113.55L271.33,91.67L271.67,83.35L272,96.3L273.34,137.47L273.67,97.49L274,109.6L274.34,91.91L274.67,132.02L275.01,116.36L275.34,62.83L276.68,143.66L277.01,82.66L277.35,87.01L277.68,107.75L278.01,117.79L278.35,80.24L278.68,73.27L279.02,147.09L279.69,71.54L280.02,120.49L280.35,62.34L281.02,68.31L281.36,110.73L281.69,80.65L282.36,124.54L283.36,72.8L283.7,59.66L284.36,141.59L284.7,108.52L285.03,94.99L285.37,114.25L285.7,101.03L286.03,82.24L286.37,127.18L286.7,89.77L287.04,90.98L287.37,95.33L287.71,79.13L288.04,88.63L288.37,74.02L289.04,105.58L289.38,104.05L289.71,102.09L290.04,72.24L290.38,99.04L290.71,98.76L291.05,142.99L291.38,93.25L291.71,95.86L292.05,99.87L292.38,76.88L292.72,137.65L293.05,86.02L293.39,84.64L293.72,115.54L294.05,97.26L294.39,74.29L295.72,122.77L296.06,101.95L296.73,85.58L297.06,97.54L298.73,66.17L299.07,112.21L299.4,113.93L300.07,127.6L300.4,106.89L300.74,214.85L301.41,101.08L301.74,101.65L302.07,94.2L302.74,106.99L303.08,84.48L303.41,88.78L303.74,123.14L304.08,84.38L304.41,92.03L304.75,96.72L305.08,97.78L305.42,123.83L306.08,125.02L306.42,84.04L306.75,102.06L307.09,106.71L307.42,90.39L308.09,100.02L308.42,91.22L309.09,104.38L309.43,190.61L309.76,45.03L310.09,60.13L310.76,101.98L311.1,101.74L311.43,105.03L311.76,83.99L312.1,101.02L312.43,105.77L312.77,80.5L313.1,101.08L313.43,115.01L313.77,119.06L314.1,105.82L314.44,110.75L314.77,105.43L315.11,106.87L315.44,106.39L315.77,141.06L316.44,101.25L317.11,110.13L317.78,90.39L318.11,93.34L318.45,118.03L318.78,88.69L319.12,130.06L319.45,87.57L319.78,101.5L320.12,106.31L320.45,121.58L320.79,115.5L321.12,83.15L321.45,88.6L322.12,116.01L322.79,86.12L323.13,117.84L323.46,100.59L324.13,103.2L324.46,105.12L324.8,101.86L325.13,113.74L325.46,112.5L325.8,105.6L326.13,123.25L326.47,64.51L326.8,100.07L327.14,85.58L327.47,86.51L328.14,114.53L328.47,73.8L329.47,107.26L329.81,76.39L330.14,115.81L330.48,89.91L330.81,103.13L331.81,79.4L332.15,101.54L332.82,95.69L333.15,102.65L333.82,83.47L334.15,99.61L334.49,93.2L334.82,109.37L335.49,88.79L335.82,102.63L336.16,128.51L336.49,95.73L337.16,64.44L337.49,129.88L337.83,152.71L338.16,65.97L338.83,116.52L339.16,83.89L339.5,100.35L339.83,100.07L340.17,167.59L340.84,76.13L341.17,112.2L341.5,94.06L341.84,75.57L342.17,84.56L342.51,91.61L342.84,139.93L343.17,86.3L343.51,96.9L343.84,98.63L344.18,92.31L344.85,84.88L345.18,72.54L345.51,101.44L345.85,67.12L346.18,100.32L346.52,68.2L346.85,107.97L347.52,101.94L347.85,109.09L348.19,103.38L348.52,55.67L348.86,114.92L349.52,103.75L349.86,100.53L350.86,123.72L351.19,113.38L351.53,78.15L351.86,104.66L352.2,94.14L352.86,116.53L353.2,106.27L353.53,114.17L353.87,76.96L354.2,95.99L354.54,114.12L354.87,101.52L355.54,102.25L355.87,100.1L356.21,92.01L356.54,104.89L357.54,94.17L357.88,123.28L358.55,93.47L358.88,120.57L359.21,117.8L359.55,103.89L359.88,77.24L360.22,117.08L361.89,79.22L362.22,102.66L362.56,118.06L362.89,107.23L363.22,90.66L363.56,121.07L363.89,117.07L364.23,108.92L364.56,62.4L365.23,74.2L365.9,105.3L366.23,99.66L366.57,97.79L366.9,121.22L367.23,103.19L367.57,113.06L367.9,95.19L368.24,129.99L368.57,134.75L368.9,93.64L369.24,116.49L369.57,109.99L369.91,74.18L370.24,73.9L370.57,77.02L370.91,114.9L371.24,66.36L371.58,95.98L371.91,79.77L372.25,75.41L372.91,106.61L373.25,94.9L373.58,120.15L373.92,111.04L374.25,67.04L375.59,134.04L375.92,87.1L376.26,117.95L376.59,113.56L376.92,63.37L377.93,96.62L378.26,91.14L378.59,107.82L378.93,76.92L379.26,102.04L379.6,86.34L379.93,57.75L380.27,16.5L380.6,84.07L380.93,118.29L381.27,68.84L381.6,121.73L381.94,81.11L382.27,91.27L382.6,115.95L382.94,80.96L383.27,124.67L383.61,111.03L383.94,60.82L385.28,128.83L385.61,103.93L385.95,103.23L386.28,105.52L386.61,75.26L386.95,93.8L387.28,109.75L387.62,98.94L387.95,58.12L388.62,140.82L388.95,99.48L389.29,103.61L389.62,66.73L389.96,116.98L390.29,105.16L390.62,96.55L391.29,81.78L391.63,73.4L392.29,82.1L392.63,122.36L393.3,71.03L393.63,77.26L393.97,100.71L394.3,220.29L394.63,97.38L394.97,100.85L395.3,87.78L395.64,103.59L395.97,96.34L396.3,102.62L396.64,86.38L396.97,123.23L397.31,98.66L397.64,75.01L398.98,150.96L399.31,107.83L399.65,144.16L399.98,105.42L400.31,110.12L400.65,126.83L400.98,120.87L401.32,55.84L401.99,105.81L402.32,92.34L402.65,124.17L403.32,89.01L403.66,125.17L404.32,89.01L404.66,108.02L405.66,71.81L406,106.04L406.33,93.83L406.66,126.83L407,123.6L407.33,97.67L407.67,110.95L408,90.11L408.33,100.16L409,87.94L409.34,118.62L410,111.5L410.34,103.73L410.67,78.41L411.01,97.27L411.34,94.46L411.68,95.3L412.01,89.93L412.34,87.94L412.68,112.52L413.01,124.95L413.35,113.83L413.68,85.97L414.68,127.53L415.02,95.27L415.35,72.09L415.69,118.5L416.02,60.17L416.35,104.06L416.69,119.43L417.02,24.11L417.36,122.53L417.69,91.49L418.02,104.7L418.36,89.89L418.69,103.58L419.03,93.29L419.36,86.3L419.7,96.71L420.03,62.88L420.36,107.12L420.7,68.03L421.03,92.55L421.37,132.64L421.7,88.54L422.03,98.07L422.37,104.29L422.7,108.71L423.04,106.44L423.37,37.4L424.37,121.14L424.71,86.22L425.04,94.07L425.38,93.52L425.71,121.17L426.38,62.51L426.71,105.51L427.05,123.77L427.38,96.02L427.71,133.46L428.05,73.79L428.38,47.45L428.72,68.61L429.39,105.97L430.39,93.07L430.72,58.61L431.06,114.64L431.72,114.23L432.06,113.96L432.73,114.24L433.06,66.62L433.4,69.44L433.73,78.67L434.4,126.61L434.73,72.41L435.4,103.07L435.73,90.74L436.07,82.22L436.4,107.02L436.74,149.15L437.07,84.86L437.41,119.8L437.74,83.84L438.07,110.27L439.08,75.92L439.41,77.41L440.41,123.6L440.75,103.31L441.08,111.51L441.42,105.33L441.75,88.17L442.08,112.17L442.42,110.92L442.75,101.09L443.09,108.66L443.42,98.78L443.75,118.5L444.09,117.72L444.42,100.94L445.09,81.75L445.43,93.69L446.43,71.12L446.76,100.07L447.43,74.26L447.76,126.33L448.1,118.87L448.43,66.81L448.77,88.07L449.1,64.18L449.43,87.74L449.77,99.33L450.1,110.51L450.44,194.37L450.77,73.26L451.11,106.86L451.44,113.52L451.77,117.24L452.11,76.18L452.44,69.81L452.78,93.48L453.11,83.98L453.44,100.91L453.78,103.71L454.11,92.26L454.45,115.7L454.78,99.14L455.12,105.54L455.45,127.68L455.78,115.2L456.12,112.05L456.45,162.67L456.79,95.39L457.12,91.23L457.45,76.59L458.12,85.56L458.46,61.29L459.13,98.34L459.46,64.45L459.79,128.04L460.13,62.96L460.46,80.69L460.8,119.31L461.13,74.99L461.46,101.9L462.13,103.36L462.47,73.11L462.8,102.68L463.47,86.48L463.8,141.45L464.81,65.03L465.14,102.37L466.14,73.94L466.48,99.92L466.81,115.57L467.14,107.77L467.48,88.02L468.48,133.27L468.82,99.78L469.48,122.26L469.82,64.83L470.82,114.14L471.15,107.13L471.82,108.34L472.16,92.93L472.49,108.29L472.83,73.02L473.16,101.6L473.49,128.33L474.5,77.66L474.83,122.5L475.16,113.29L475.5,81.53L476.17,139.27L476.5,94.52L476.84,117.61L477.17,79.8L477.5,288.51L477.84,70.69L478.17,83.83L478.51,83.68L478.84,79.09L479.17,95.07L479.51,63.52L480.51,148.98L480.85,102.09L481.18,96.49L481.51,63.84L482.18,112.13L482.52,106.22L482.85,87.58L483.52,123.35L483.85,116L484.19,78.27L484.52,100.1L484.86,83.78L485.19,88.46L485.86,94.36L486.19,106.07L486.53,73.09L486.86,110.62L487.19,111.52L487.86,83.19L488.2,102.35L488.53,102.02L488.86,117.58L489.2,91.12L489.53,120.17L489.87,124.3L490.2,104.21L490.54,106.16L490.87,111.85L491.2,127.94L491.54,100.57L491.87,94.06L492.21,101.05L492.54,101.17L492.87,133.1L493.21,113.09L493.54,86.08L493.88,179.33L494.21,126.14L494.55,110.21L494.88,108.38L495.21,96.86L495.55,77.59L495.88,90.31L496.22,128.77L497.22,109.24L497.55,101.82L497.89,84.6L498.22,119.93L498.56,74.22L498.89,77.76L499.22,108.85L499.56,70.93L499.89,82.75L500.23,94.45L500.89,117.53L501.23,105.86L501.9,92.46L502.23,91L502.57,91.23L502.9,110.92L503.23,104.49L503.57,113L503.9,76.11L504.57,83.23L504.9,106.87L505.91,181.24L506.24,101.2L506.57,181.23L506.91,111.85L507.24,100.77L507.58,80.61L508.25,81.15L508.58,114.71L509.25,85.35L509.58,91.21L509.92,103.47L510.58,118.42L510.92,94.11L511.25,117.01L511.59,210.98L511.92,95.43L512.26,313.5L512.92,72.03L513.26,113.89L513.59,68.13L513.93,113.12L514.26,102.82L514.59,100.78L515.26,86.74L515.6,121.88L516.6,92.6L516.93,103.48L517.27,111.47L517.94,107.79L518.6,123.56L518.94,105.05L519.27,106.62L519.61,113.25L519.94,85.65L520.28,115.03L520.61,112.54L520.94,127.22L521.28,101.78L522.28,127.48L522.61,111.98L522.95,148.42L523.28,113.28L523.62,108.32L523.95,130.72L524.29,107.1L524.62,90.69L524.95,95.17L525.29,70.84L526.29,130.55L526.62,102.13L526.96,138.94L527.29,134.61L527.63,120.52L528.63,83.03L528.96,103.89L529.63,96.59L529.97,73.63L530.97,113.32L531.3,103.67L531.97,112.83L532.3,69L533.31,99.47L533.64,100.5L533.98,83.91L534.31,98.78L534.64,107.45L535.31,71.94L535.65,112.3L535.98,80.32L536.31,120.68L536.65,92.53L537.32,116.5L537.65,107.24L537.99,91.43L538.32,116.76L538.65,110.95L538.99,101.95L539.32,114.61L539.66,110.82L539.99,104.14L540.32,115.75L540.66,100.48L540.99,118.46L541.33,103.53L541.66,111.58L542,93.38L542.33,101.06L542.66,122.87L543.67,48.28L544,99.46" style="vector-effect: non-scaling-stroke; fill: none; stroke: rgb(31, 119, 180); stroke-opacity: 1; stroke-width: 2px; opacity: 1;"/></g><g class="points"/><g class="text"/></g></g></g><g class="overplot"/><path class="xlines-above crisp" d="M0,0" style="fill: none;"/><path class="ylines-above crisp" d="M0,0" style="fill: none;"/><g class="overlines-above"/><g class="xaxislayer-above"><g class="xtick"><text text-anchor="middle" x="0" y="403" transform="translate(226.74,0)" style="font-family: 'Open Sans', verdana, arial, sans-serif; font-size: 12px; fill: rgb(68, 68, 68); fill-opacity: 1; white-space: pre;">50k</text></g><g class="xtick"><text text-anchor="middle" x="0" y="403" transform="translate(393.82,0)" style="font-family: 'Open Sans', verdana, arial, sans-serif; font-size: 12px; fill: rgb(68, 68, 68); fill-opacity: 1; white-space: pre;">100k</text></g><g class="xtick"><text text-anchor="middle" x="0" y="403" transform="translate(560.89,0)" style="font-family: 'Open Sans', verdana, arial, sans-serif; font-size: 12px; fill: rgb(68, 68, 68); fill-opacity: 1; white-space: pre;">150k</text></g></g><g class="yaxislayer-above"><g class="ytick"><text text-anchor="end" x="59" y="4.199999999999999" transform="translate(0,372.74)" style="font-family: 'Open Sans', verdana, arial, sans-serif; font-size: 12px; fill: rgb(68, 68, 68); fill-opacity: 1; white-space: pre;">2</text></g><g class="ytick"><text text-anchor="end" x="59" y="4.199999999999999" transform="translate(0,332.31)" style="font-family: 'Open Sans', verdana, arial, sans-serif; font-size: 12px; fill: rgb(68, 68, 68); fill-opacity: 1; white-space: pre;">2.5</text></g><g class="ytick"><text text-anchor="end" x="59" y="4.199999999999999" transform="translate(0,291.89)" style="font-family: 'Open Sans', verdana, arial, sans-serif; font-size: 12px; fill: rgb(68, 68, 68); fill-opacity: 1; white-space: pre;">3</text></g><g class="ytick"><text text-anchor="end" x="59" y="4.199999999999999" transform="translate(0,251.46)" style="font-family: 'Open Sans', verdana, arial, sans-serif; font-size: 12px; fill: rgb(68, 68, 68); fill-opacity: 1; white-space: pre;">3.5</text></g><g class="ytick"><text text-anchor="end" x="59" y="4.199999999999999" transform="translate(0,211.03)" style="font-family: 'Open Sans', verdana, arial, sans-serif; font-size: 12px; fill: rgb(68, 68, 68); fill-opacity: 1; white-space: pre;">4</text></g><g class="ytick"><text text-anchor="end" x="59" y="4.199999999999999" transform="translate(0,170.61)" style="font-family: 'Open Sans', verdana, arial, sans-serif; font-size: 12px; fill: rgb(68, 68, 68); fill-opacity: 1; white-space: pre;">4.5</text></g><g class="ytick"><text text-anchor="end" x="59" y="4.199999999999999" transform="translate(0,130.18)" style="font-family: 'Open Sans', verdana, arial, sans-serif; font-size: 12px; fill: rgb(68, 68, 68); fill-opacity: 1; white-space: pre;">5</text></g><g class="ytick"><text text-anchor="end" x="59" y="4.199999999999999" transform="translate(0,89.76)" style="font-family: 'Open Sans', verdana, arial, sans-serif; font-size: 12px; fill: rgb(68, 68, 68); fill-opacity: 1; white-space: pre;">5.5</text></g></g><g class="overaxes-above"/></g></g><g class="polarlayer"/><g class="ternarylayer"/><g class="geolayer"/><g class="pielayer"/><g class="glimages"/><defs id="topdefs-987592"><g class="clips"/><clipPath id="legend987592"><rect width="73" height="29" x="0" y="0"/></clipPath></defs><g class="layer-above"><g class="imagelayer"/><g class="shapelayer"/></g><g class="infolayer"><g class="legend" pointer-events="all" transform="translate(614.88, 60)"><rect class="bg" shape-rendering="crispEdges" width="73" height="29" x="0" y="0" style="stroke: rgb(68, 68, 68); stroke-opacity: 1; fill: rgb(255, 255, 255); fill-opacity: 1; stroke-width: 0px;"/><g class="scrollbox" transform="translate(0, 0)" clip-path="url(#legend987592)"><g class="groups"><g class="traces" transform="translate(0, 14.5)" style="opacity: 1;"><g class="layers" style="opacity: 1;"><g class="legendfill"/><g class="legendlines"><path class="js-line" d="M5,0h30" style="fill: none; stroke: rgb(31, 119, 180); stroke-opacity: 1; stroke-width: 2px;"/></g><g class="legendsymbols"><g class="legendpoints"/></g></g><text class="legendtext user-select-none" text-anchor="start" x="40" y="4.680000000000001" style="font-family: 'Open Sans', verdana, arial, sans-serif; font-size: 12px; fill: rgb(68, 68, 68); fill-opacity: 1; white-space: pre;">train</text><rect class="legendtoggle" pointer-events="all" x="0" y="-9.5" width="113" height="19" style="cursor: pointer; fill: rgb(0, 0, 0); fill-opacity: 0;"/></g></g></g><rect class="scrollbar" rx="20" ry="3" width="0" height="0" x="0" y="0" style="fill: rgb(128, 139, 164); fill-opacity: 1;"/></g><g class="g-gtitle"><text class="gtitle" x="350" y="30" text-anchor="middle" dy="0em" style="font-family: 'Open Sans', verdana, arial, sans-serif; font-size: 17px; fill: rgb(68, 68, 68); opacity: 1; font-weight: normal; white-space: pre;">Loss</text></g><g class="g-xtitle"><text class="xtitle" x="332" y="442" text-anchor="middle" style="font-family: 'Open Sans', verdana, arial, sans-serif; font-size: 14px; fill: rgb(68, 68, 68); opacity: 1; font-weight: normal; white-space: pre;">batch</text></g><g class="g-ytitle"><text class="ytitle" transform="rotate(-90,22,225)" x="22" y="225" text-anchor="middle" style="font-family: 'Open Sans', verdana, arial, sans-serif; font-size: 14px; fill: rgb(68, 68, 68); opacity: 1; font-weight: normal; white-space: pre;">loss</text></g></g></svg>