<svg class="main-svg" xmlns="http://www.w3.org/2000/svg" xmlns:xlink="http://www.w3.org/1999/xlink" width="700" height="450" style="" viewBox="0 0 700 450"><rect x="0" y="0" width="700" height="450" style="fill: rgb(255, 255, 255); fill-opacity: 1;"/><defs id="defs-eadb12"><g class="clips"><clipPath id="clipeadb12xyplot" class="plotclip"><rect width="544" height="330"/></clipPath><clipPath class="axesclip" id="clipeadb12x"><rect x="60" y="0" width="544" height="450"/></clipPath><clipPath class="axesclip" id="clipeadb12y"><rect x="0" y="60" width="700" height="330"/></clipPath><clipPath class="axesclip" id="clipeadb12xy"><rect x="60" y="60" width="544" height="330"/></clipPath></g><g class="gradients"/></defs><g class="bglayer"/><g class="layer-below"><g class="imagelayer"/><g class="shapelayer"/></g><g class="cartesianlayer"><g class="subplot xy"><g class="layer-subplot"><g class="shapelayer"/><g class="imagelayer"/></g><g class="gridlayer"><g class="x"><path class="xgrid crisp" transform="translate(220.47,0)" d="M0,60v330" style="stroke: rgb(238, 238, 238); stroke-opacity: 1; stroke-width: 1px;"/><path class="xgrid crisp" transform="translate(380.94,0)" d="M0,60v330" style="stroke: rgb(238, 238, 238); stroke-opacity: 1; stroke-width: 1px;"/><path class="xgrid crisp" transform="translate(541.4200000000001,0)" d="M0,60v330" style="stroke: rgb(238, 238, 238); stroke-opacity: 1; stroke-width: 1px;"/></g><g class="y"><path class="ygrid crisp" transform="translate(0,386.25)" d="M60,0h544" style="stroke: rgb(238, 238, 238); stroke-opacity: 1; stroke-width: 1px;"/><path class="ygrid crisp" transform="translate(0,330.1)" d="M60,0h544" style="stroke: rgb(238, 238, 238); stroke-opacity: 1; stroke-width: 1px;"/><path class="ygrid crisp" transform="translate(0,273.95)" d="M60,0h544" style="stroke: rgb(238, 238, 238); stroke-opacity: 1; stroke-width: 1px;"/><path class="ygrid crisp" transform="translate(0,217.8)" d="M60,0h544" style="stroke: rgb(238, 238, 238); stroke-opacity: 1; stroke-width: 1px;"/><path class="ygrid crisp" transform="translate(0,161.65)" d="M60,0h544" style="stroke: rgb(238, 238, 238); stroke-opacity: 1; stroke-width: 1px;"/><path class="ygrid crisp" transform="translate(0,105.5)" d="M60,0h544" style="stroke: rgb(238, 238, 238); stroke-opacity: 1; stroke-width: 1px;"/></g></g><g class="zerolinelayer"><path class="xzl zl crisp" transform="translate(60,0)" d="M0,60v330" style="stroke: rgb(68, 68, 68); stroke-opacity: 1; stroke-width: 1px;"/></g><path class="xlines-below"/><path class="ylines-below"/><g class="overlines-below"/><g class="xaxislayer-below"/><g class="yaxislayer-below"/><g class="overaxes-below"/><g class="plot" transform="translate(60, 60)" clip-path="url(#clipeadb12xyplot)"><g class="scatterlayer mlayer"><g class="trace scatter tracef60745" style="stroke-miterlimit: 2; opacity: 1;"><g class="fills"/><g class="errorbars"/><g class="lines"><path class="js-line" d="M0,16.5L0.96,22.85L1.28,20.81L1.93,29.82L2.25,26.29L2.57,23.69L2.89,25.17L3.21,37.04L3.53,23.82L3.85,31.19L4.17,34.14L4.81,26.06L5.14,26.61L5.46,35.08L5.78,28.15L6.1,28.22L6.42,31.18L7.06,44.75L7.38,33.32L7.7,26.17L8.02,33.32L8.34,39.39L9.31,30L9.63,38.56L9.95,18.76L10.27,40.65L10.59,37.26L10.91,52.27L11.23,41.37L11.55,41.28L11.87,25.98L12.2,38.51L12.52,37.36L12.84,38.85L13.16,35.11L13.48,39.67L13.8,37.14L14.12,32L14.44,33.79L14.76,52.87L15.08,26.98L15.41,36.27L15.73,39.03L16.37,30.98L16.69,36.53L17.33,34.5L17.65,46.23L17.97,33.33L18.29,40.75L18.61,37.59L18.94,37.87L19.58,43.52L19.9,52.32L20.54,36.11L20.86,38.12L21.18,68.16L21.5,35.11L22.15,44.01L22.47,29.94L22.79,38.05L23.43,37.26L23.75,31.4L24.07,58.04L24.71,50.16L25.03,34.71L25.35,44.09L26,41.62L26.32,43.12L26.64,40.56L26.96,44.24L27.28,48.18L27.6,40.72L27.92,35.67L28.24,37.61L28.56,47.11L29.21,41.57L29.53,48.11L29.85,46.41L30.17,51.14L30.49,48.44L30.81,37.08L31.13,41.12L31.45,37.19L31.77,33.09L32.09,52.81L32.42,47.3L32.74,44.04L33.38,36.73L33.7,41.66L34.34,38.04L34.66,45.22L34.98,55.82L35.3,40.68L35.62,39.64L35.95,51.32L36.27,47.68L36.59,55.96L36.91,56.02L37.23,42.37L37.87,57.81L38.19,50.41L38.51,39.41L38.83,39.71L39.16,55.86L39.8,39.53L40.12,49.85L40.44,42.96L40.76,49.4L41.08,60.05L42.04,32.71L42.36,52.01L42.69,46.2L43.01,49.04L43.33,69.07L43.65,50.42L44.29,50.93L44.61,46.08L44.93,53.8L45.25,53.63L45.57,49.68L46.22,40.43L46.54,46.32L46.86,44.91L47.18,49.32L48.14,34.08L48.46,44.15L48.78,59.35L49.1,41.8L49.43,34.98L49.75,54.77L50.07,43.96L50.39,40.34L50.71,38.63L51.03,42.52L51.35,39.73L51.67,47.25L51.99,42.94L52.31,49.8L52.63,40.52L53.28,41.52L53.6,53.21L53.92,55.71L54.24,47.62L54.56,36.82L54.88,47.09L55.2,52.19L55.52,57.74L55.84,51.25L56.17,48.73L56.49,43.78L57.13,44.48L57.45,64.63L58.09,43.79L58.41,44.04L58.73,57.87L59.37,40.8L59.7,49.18L60.02,46.78L60.34,39.89L60.66,48.48L60.98,54.13L61.3,45.43L61.62,54.7L61.94,67.33L62.91,33.07L63.23,56.52L63.55,46.84L63.87,54.65L64.19,56.26L64.51,42.5L64.83,44.73L65.15,49.56L65.47,48.86L65.79,61.88L66.11,34.45L66.44,45.36L66.76,48.4L67.08,45.91L67.4,55.48L67.72,57.15L68.04,70.37L69,49.33L69.32,54.76L69.64,39.86L69.97,49.72L70.29,48.83L70.93,69.02L71.25,44.52L72.85,63.72L73.18,61.42L73.82,46.57L74.14,50.96L74.46,41.67L74.78,60.62L75.1,50.91L75.42,44.6L75.74,68.39L76.06,63.28L76.38,40.79L76.71,42.48L77.03,56.13L77.35,49.04L77.67,56.32L77.99,56.54L78.63,45.66L78.95,48.62L79.27,51.55L79.59,39.97L79.92,49.98L80.24,57.6L80.88,52.04L81.2,66.39L81.84,37.73L82.16,70.14L83.12,40.78L83.45,57.72L83.77,51.38L84.09,72.33L84.41,49.76L84.73,60.48L85.05,65.81L85.37,41.77L85.69,80.1L86.65,52.54L86.98,58.3L87.94,44.96L88.26,62.9L89.54,46.29L89.86,42.94L90.19,64.32L90.51,54.49L90.83,46.58L91.47,64.82L91.79,62.57L92.11,52.86L93.07,57.22L93.39,51.8L93.72,66.24L94.04,45.92L94.36,44.96L94.68,49.46L95.64,55.29L95.96,57.93L96.6,57.16L96.93,62.39L97.25,53.18L97.57,64.77L97.89,52.29L98.21,61.13L98.53,42.3L99.17,59.43L99.49,46.3L99.81,45.75L100.13,55.87L100.46,55.91L100.78,57.14L101.1,56.63L101.42,60.39L102.06,56.83L102.38,73.41L102.7,54.5L103.34,54.9L103.66,60.47L103.99,129.65L104.31,83.87L104.63,64.37L104.95,80.64L105.27,36.36L106.23,81L106.55,43.66L106.87,58.73L107.2,57.41L107.52,49.36L107.84,49.13L108.16,57.94L108.48,85.23L108.8,63.39L109.12,58.41L109.44,53.7L109.76,95.31L110.4,42.27L110.73,47.76L111.05,61.63L111.37,58.06L111.69,64.61L112.33,67.2L112.65,54.96L112.97,60.68L113.61,57.13L113.94,58.66L114.26,69L115.22,49.14L115.54,53.15L115.86,62.05L116.18,48.6L116.5,44.9L116.82,65.39L117.79,47.86L118.11,55.25L119.07,69.63L119.39,47.52L120.03,61L120.35,58.97L120.67,49L121.64,73.27L121.96,46.79L122.6,42.61L122.92,65.33L123.24,48.78L123.56,47.66L123.88,60.01L124.21,63.69L124.53,62.07L124.85,74.04L125.49,48.94L125.81,60.79L126.13,57.79L126.45,64.54L126.77,109.23L127.09,67.86L127.41,56.9L127.74,70.2L128.06,52.9L128.38,63.28L128.7,103.89L129.02,38.44L129.34,50.94L129.66,50.22L129.98,45.01L130.3,70.42L130.62,42.03L130.95,58.93L132.23,40.13L132.55,52.79L133.19,71.23L133.51,60.42L133.83,47.94L134.15,63.45L134.48,63.4L134.8,49.34L135.12,54.16L135.44,77.93L136.4,58.01L136.72,59.34L137.04,47.4L137.36,62.24L137.68,59.16L138.01,55.78L138.33,145.42L138.65,128.3L138.97,57.54L139.29,51.2L139.61,51.47L139.93,61.57L140.89,53.19L141.22,53.44L141.54,52.77L141.86,49.85L142.82,79.56L143.14,66.94L143.46,63.56L143.78,64.63L144.1,64.95L144.75,55.55L145.07,81.38L145.71,50.35L146.03,60.14L146.35,67.23L147.31,55.18L147.63,70.53L147.96,84.36L148.28,68.13L148.6,61.37L148.92,55.02L149.24,76.67L149.56,51.96L150.2,57.58L150.52,57.41L150.84,40.62L151.16,59.92L151.49,72.78L151.81,61L152.13,65.95L152.45,65.91L153.41,52.19L153.73,112.49L154.05,108.73L154.37,72.31L155.02,52.42L155.34,65.54L155.66,60.16L155.98,76.63L156.3,52.72L156.94,60.14L157.26,62.66L157.58,53.84L157.9,82.09L158.87,71.52L159.19,56.31L159.51,70.36L159.83,62.29L160.15,55L160.79,96.32L161.11,58.73L161.76,69.23L162.08,61.48L163.04,74.91L163.36,57.24L163.68,59.31L164,55.58L164.32,67.64L164.64,62.76L164.97,59.27L165.29,69.66L165.61,63.31L165.93,52.86L166.25,64.13L166.57,50.56L166.89,55.9L167.53,62.01L167.85,74.1L168.17,72.71L168.5,73.95L168.82,257.93L170.1,56.49L170.42,59.67L170.74,62.98L171.06,43.07L172.03,64.34L172.35,54.24L172.67,46.54L172.99,52.13L173.31,57.08L173.63,45.71L173.95,72.29L174.59,58.72L174.91,60.34L175.24,59.92L175.56,73.5L175.88,59.09L176.2,54.78L176.84,66.98L177.16,59.14L177.48,56.93L177.8,60.07L178.44,52.18L178.77,68.47L179.09,78.5L179.41,64.07L180.05,41.9L180.37,91.89L180.69,47.45L181.01,62.54L181.33,87.11L181.98,51.75L182.3,66.28L182.62,65.08L182.94,63.97L183.26,55.41L183.9,108.9L184.22,75.74L185.51,49.33L185.83,252.91L186.15,57.51L186.79,70.47L187.11,57.26L187.43,50.44L187.75,77.8L188.07,59.5L188.72,59.57L189.04,59.85L189.36,64.32L189.68,54.45L190,63.77L190.32,59.39L190.64,40.85L190.96,59.95L191.6,57.18L191.92,55.89L192.89,69.71L193.21,58.84L193.53,50.83L194.17,52.07L194.49,52.84L194.81,58.77L195.13,54.24L195.45,52.3L196.1,71.77L196.42,60.8L196.74,64.15L197.06,57.37L197.38,57.58L197.7,53.93L198.02,73.27L198.66,67.88L198.99,70.77L199.63,55.26L199.95,56.58L200.27,67.64L200.59,57.05L200.91,72.19L201.87,52.99L202.19,53.14L202.52,65.26L203.8,40.16L204.12,57.57L204.44,81.65L205.08,76.67L205.4,71.22L206.37,49.2L206.69,59.62L207.01,74.71L207.33,48.63L208.61,85.4L208.93,55.27L209.26,69.64L209.9,66.92L210.22,77.53L210.54,50.33L211.18,56.36L211.5,57.08L212.14,57.75L212.46,54.23L213.43,71.94L213.75,73.8L214.07,83.63L214.39,53.83L214.71,72.99L215.03,54.17L215.35,57.45L215.67,60.24L216,71.36L216.64,66.69L216.96,54.8L217.28,55.34L217.6,61.16L217.92,52.27L218.24,70.19L218.56,51.87L218.88,80.03L219.53,63.05L219.85,77.81L220.17,58.37L220.49,63.59L220.81,79.66L221.13,53.48L221.77,54.58L222.09,40.45L223.38,89.64L223.7,63.96L224.02,80.74L224.34,80.33L224.66,68.27L224.98,59.52L225.62,61.1L225.94,69.99L226.27,81.4L226.59,68.47L226.91,58.66L227.23,67.81L227.55,60.47L227.87,60.69L228.19,57.93L228.51,59.77L228.83,78.5L229.15,46.15L229.47,71.44L229.8,60.78L230.12,62.01L230.44,69.81L231.4,31.52L231.72,55.67L232.36,75.55L232.68,70.94L233.01,62.79L233.33,71.25L233.65,61.31L233.97,52.75L234.29,72.53L234.61,59.03L234.93,51.11L235.89,71.47L236.21,63.52L236.54,69.69L237.18,68.36L237.5,71.61L238.14,67.65L238.46,71.95L238.78,74.29L239.1,59.09L239.75,83.68L240.07,48.78L240.39,48.34L240.71,77.49L241.03,82.47L241.35,80.52L241.67,65L241.99,49.59L242.31,58.23L242.63,72.7L243.28,58.26L243.6,66.03L243.92,68.98L244.24,67.37L244.56,48.09L244.88,75.12L245.2,57.19L245.52,55.69L245.84,89.27L246.16,68.92L246.48,61.56L246.81,57.6L247.13,97.39L247.77,77.59L248.09,77.76L248.41,46.07L249.37,71.32L249.69,69.15L250.02,46.65L250.66,53.52L250.98,49.43L251.94,67.26L252.26,48.67L252.9,47.99L253.55,83.36L253.87,69.25L254.19,66.59L254.51,79.16L254.83,55.11L255.47,58.64L255.79,59.31L256.11,61.36L256.43,60.39L256.76,76.5L257.08,83.16L257.4,56.93L257.72,53.94L258.04,73.8L258.36,54.7L258.68,55.14L259,69.1L259.96,76.45L260.29,63.16L260.93,73.61L261.25,54.67L261.89,63.22L262.21,62.29L262.53,58.15L263.17,51.84L263.49,66.29L263.82,54.55L264.14,60.25L264.46,71.34L264.78,73.93L265.1,85.17L265.74,65.71L266.06,69.54L266.38,69.38L266.7,53.23L267.03,87.06L267.35,64.08L267.99,71.03L268.31,68.89L268.63,56.26L268.95,76.24L269.27,53.97L269.91,57.76L270.23,62.9L270.56,57.26L270.88,73.79L271.2,83.78L271.52,75.62L271.84,65.6L272.16,66.19L272.48,84.01L273.12,55.79L273.44,61.87L273.77,66.36L274.09,101.57L274.41,67.96L274.73,58.25L275.37,58.86L275.69,52.06L276.01,70L276.33,72.09L276.65,62.3L276.97,65.95L277.3,54.81L278.26,67.36L278.58,97.37L278.9,98.41L279.22,58.36L279.54,120.48L279.86,49.89L280.18,62.89L280.51,66.05L280.83,55.27L281.15,89.47L281.47,62.78L281.79,54.47L282.11,74.87L282.43,72.14L282.75,47.59L283.07,59.11L283.39,54.78L283.71,179.46L284.36,59.09L285,59.74L285.32,54.49L285.96,65.14L286.28,56.85L286.6,51.06L286.92,69.52L287.24,63.14L287.57,71.79L288.21,54.21L288.53,65.61L289.17,70.97L289.49,45.55L290.45,93.21L290.78,67.49L291.1,51.65L291.42,86.94L291.74,86.22L292.06,76.07L292.7,87.53L293.02,65.33L293.34,79.72L293.66,72.4L293.98,48.62L294.31,51.93L294.63,73.35L294.95,68.4L295.27,70.29L295.59,71.53L295.91,71.23L296.23,78.41L296.55,89.49L296.87,63.76L297.19,47.61L297.52,58.71L297.84,53.15L298.48,58.71L298.8,82.03L299.44,61.96L299.76,73.81L300.08,63.7L300.4,68.43L300.72,54.46L301.05,87.9L301.37,52.28L301.69,58.73L302.33,88.43L302.65,53.29L303.29,97.97L303.61,58.37L303.93,58.21L304.25,41.88L304.58,83.76L304.9,47.3L305.22,69.07L305.54,83.89L305.86,71.62L306.18,53.69L306.5,98.55L307.14,84.9L307.46,53.51L308.43,66.21L308.75,56.61L309.39,79.79L309.71,61.77L310.03,55.78L310.35,77.12L311.32,57.05L311.64,67.92L312.6,101.19L312.92,76.67L313.56,68.72L313.88,74.4L314.53,59.4L314.85,78.19L315.17,73.68L315.49,83.05L315.81,56.69L316.45,58.46L316.77,69.77L317.41,63.9L317.73,65.71L318.06,71.01L318.7,73.56L319.02,57.63L319.34,71.06L319.98,97.78L320.3,75.11L320.94,127.2L321.26,110.18L321.59,86.28L321.91,58.66L322.55,64.26L322.87,59.22L323.19,83.12L323.51,63.05L323.83,64.7L324.47,55.81L324.8,66.25L325.12,74.67L325.44,63.43L325.76,72.97L326.08,64.48L326.4,55.18L326.72,70.82L327.04,83.98L327.36,74.33L327.68,68.17L328,72.04L328.33,61.8L328.65,47.41L328.97,68.42L329.61,66.75L329.93,59.12L330.25,78.65L330.57,75.92L330.89,59.63L331.21,52.56L331.54,67.78L331.86,64.29L332.18,80.13L332.5,57.41L332.82,70.89L333.14,80.82L333.46,68.48L333.78,73.7L334.1,102.18L334.74,55.09L335.07,68.04L335.39,69.76L336.03,83.27L336.35,69.98L336.67,72.06L336.99,61.37L337.31,42.66L337.63,56.32L337.95,59.05L338.27,67.36L338.6,108.18L339.24,101.5L339.56,129.23L340.52,53.22L340.84,82.92L341.81,44.83L342.13,73.97L342.45,73.29L342.77,74.86L343.09,67.72L343.41,96.27L343.73,58.3L344.37,61.11L344.69,139.09L345.34,47.72L345.66,84.02L345.98,82.39L346.62,65.79L346.94,69.74L347.26,93.37L347.58,60.29L348.22,65.34L348.55,66.42L348.87,74.48L349.51,64.38L349.83,112.65L350.15,66.66L350.47,53.08L351.43,81.78L351.75,70.35L352.4,76.55L352.72,55.33L354.64,83.25L354.96,73.78L355.28,100.19L355.61,78.01L355.93,63.67L356.25,72.17L356.57,59.65L356.89,51.76L357.21,65.21L357.53,58.45L357.85,108.35L358.82,60.51L359.14,89.36L359.46,47.04L359.78,97.09L360.1,66.47L360.42,161.04L360.74,140.18L361.06,55.52L362.35,76.44L362.67,58.6L362.99,84.89L363.31,75.14L363.63,72.95L363.95,117.38L364.27,66.64L364.59,55.96L365.88,77.1L366.2,66.61L366.52,84.71L366.84,69.21L367.16,74.45L367.48,61.53L367.8,90.73L368.12,59.12L368.76,67.79L369.09,67.92L369.41,61.85L369.73,64.4L370.05,75.46L370.37,204.78L370.69,100.35L371.01,108.48L371.97,58.94L372.29,63.6L372.62,52.63L372.94,64.55L373.26,70.81L373.58,48.92L373.9,68.12L374.22,70.67L374.54,67.51L374.86,200.71L375.18,276.63L375.5,248.83L375.83,79.45L376.15,80.1L376.47,65.99L376.79,87.72L377.11,84.56L377.43,69.51L377.75,75.04L378.07,71.11L378.39,59.15L379.03,101.24L379.36,57.17L379.68,88.76L380,63.8L380.32,53.35L381.28,94.15L381.6,71.87L382.57,55.69L382.89,62.68L383.21,72.36L383.53,67.72L383.85,68.41L384.17,64.77L384.49,69.54L384.81,76.68L385.13,66.95L385.45,113.49L385.77,58.91L386.42,64.44L386.74,82.79L387.7,49.4L388.02,64.19L388.66,75.96L388.98,61.16L389.63,65.74L389.95,58.04L390.59,86.78L390.91,76.71L391.23,80.49L391.55,76.56L391.87,82.21L392.19,82.93L392.51,78.33L393.16,72.12L393.48,170.78L394.44,55.18L394.76,66.72L395.08,51.41L395.4,59.95L395.72,209.47L396.69,59.05L397.01,68.09L397.33,52.35L397.65,61.14L397.97,63.28L398.93,74.4L399.25,68.43L399.9,57.91L400.22,88.13L400.86,62.63L401.18,98.48L401.5,49.86L401.82,63.94L402.14,91.6L402.46,85.19L402.78,111.71L403.11,53.62L403.75,65.55L404.07,64.11L405.03,82.29L405.35,59.78L405.67,61.95L405.99,72.57L406.32,72.45L406.64,81.09L407.6,50.28L407.92,59.8L408.24,61.04L408.56,90.37L409.2,60.08L409.52,98.14L410.17,87.14L410.49,69.02L410.81,89.27L411.13,77.73L411.45,58.13L412.41,76.2L412.73,50.44L413.05,74.66L413.38,70.67L413.7,65.67L414.66,82.37L414.98,64.82L415.3,88.88L415.62,84.18L415.94,58.57L416.26,57.7L416.59,170.25L417.23,313.5L417.55,231.96L417.87,59.37L418.83,84.07L419.15,81.25L419.47,74.59L420.12,93.35L420.44,60.8L420.76,75.32L421.08,60.26L421.4,67.7L421.72,62.01L422.04,80.69L422.36,57.32L422.68,77.51L423,75.77L423.33,70.74L423.65,82.23L423.97,84.96L424.29,78.01L424.61,65.97L424.93,81.59L425.25,82.46L425.57,80.21L425.89,63.16L426.53,73.26L426.86,68.85L427.18,67.03L427.5,82.97L427.82,71.71L428.14,56.3L428.46,60.82L428.78,52.2L429.1,53.7L429.42,74.39L429.74,70.81L430.06,52.54L431.67,91.07L431.99,68.89L432.95,60.03L433.27,75.29L433.6,56.69L433.92,75.03L434.24,64.4L434.88,37.58L435.2,73.27L435.52,53.97L435.84,59.52L436.16,65.29L436.48,76.43L436.8,62.33L437.13,46.46L437.45,83.69L437.77,59.2L438.09,65.86L438.41,86.57L438.73,65.91L439.05,59.88L439.37,67.12L439.69,62.05L440.01,58.25L440.98,83.92L441.3,47.8L441.94,76.75L442.26,55.53L442.58,57.91L442.9,80.73L443.22,82.45L443.54,124.38L444.19,62.32L444.51,78.87L444.83,62.41L445.47,67.48L445.79,51.39L446.11,70.37L446.43,56.05L446.75,62.28L447.07,56.75L447.4,81.17L447.72,64.89L448.04,93.56L448.36,105.89L448.68,77.87L449.64,55.12L449.96,76.3L450.28,83.31L450.61,61.48L450.93,58.83L451.25,67.74L451.57,90.65L451.89,61.1L452.21,90.31L452.53,64.66L453.17,90.12L453.49,55.67L454.14,70.73L454.46,137.84L454.78,57.6L455.42,74.69L455.74,64.77L456.38,71.32L456.7,58.27L457.35,85.29L457.67,80.13L457.99,75.59L458.63,54.13L458.95,70.68L459.27,63.49L459.59,65.76L459.91,69.53L460.23,89.98L460.55,73.67L460.88,63.57L461.2,82.26L461.52,79.98L461.84,69.83L462.48,54.97L462.8,66.38L463.12,114.34L463.44,60.37L463.76,61.3L464.41,91.73L464.73,60.85L465.05,65.33L465.37,82.44L465.69,69.73L466.33,72.6L466.65,71L466.97,89.34L467.29,53.01L468.26,131.6L468.58,60.31L468.9,88.99L469.22,75.35L469.54,74.65L469.86,69.79L470.18,84.11L470.5,60.81L470.82,66.47L471.15,79.49L471.47,94.82L471.79,72.48L472.11,82.33L472.43,70.99L472.75,67.25L473.07,68.44L473.39,90.85L473.71,57.62L474.36,66.11L474.68,65.58L475,54.35L475.32,65.13L475.64,98.47L476.28,63.13L476.6,64.62L476.92,79.59L477.24,89.17L477.56,128.31L478.21,63.11L478.53,66.82L478.85,59.46L479.17,64.97L479.49,49L480.13,93.83L480.45,74.5L480.77,66.2L481.42,58.47L481.74,74.67L482.06,61.5L482.38,78.32L482.7,77.72L483.02,65.88L483.34,95.15L484.3,69.07L484.63,72.47L484.95,63.65L485.27,65.07L485.59,83.31L486.23,77.39L486.55,64.52L487.19,87.8L487.51,85.38L487.83,70.78L488.16,76.69L488.48,58.28L489.44,88.95L489.76,71.95L491.04,52.96L491.37,67.7L491.69,85.01L492.01,53.18L493.29,96.93L493.61,67.06L493.93,89.08L494.57,81.61L494.9,75.51L495.22,78.5L495.54,68.4L495.86,71.76L496.18,62.47L497.14,88.55L497.46,68.62L497.78,62.95L498.11,88.64L498.75,85.52L499.07,53.47L500.03,82.61L500.35,58.5L501.31,75.45L501.64,72.55L501.96,67.17L502.28,83.88L502.6,98.57L502.92,83.71L503.24,58.49L504.2,80.26L504.52,79.77L505.17,75.81L505.49,59.09L505.81,163.75L506.13,115.65L506.45,101.33L506.77,160.02L507.09,93.57L507.41,68.3L507.73,90.87L508.05,59.69L508.38,65.74L508.7,58.44L509.02,78.53L509.34,54.88L509.98,60.28L510.3,118.15L510.62,58.12L511.26,76.63L511.58,127.82L511.91,125.09L512.23,190.07L513.19,69.05L513.51,58.87L513.83,187.27L514.15,50.94L514.47,175.86L514.79,110.89L515.12,66.5L515.76,80.74L516.08,82.47L516.4,60.17L516.72,76L517.04,71.06L517.36,60.15L517.68,69.06L518,80.87L518.65,83.63L518.97,67.26L519.29,92.54L519.61,67.73L519.93,63.28L520.25,86.41L520.89,78.77L521.21,67.05L521.53,121.96L521.85,105.78L522.18,69.86L522.5,68.52L522.82,68.89L523.14,82.49L524.1,42.97L524.42,64.96L524.74,88.4L525.06,50.19L525.39,76.14L526.03,69.41L526.35,67.79L526.67,88.36L526.99,70.12L527.31,67.07L527.63,77.52L527.95,62.87L528.27,66.04L528.59,60.52L528.92,54.67L529.24,69.92L530.2,76.19L530.52,109.77L531.48,56.81L531.8,71.37L532.13,118.4L532.45,74.06L532.77,60.11L533.41,70.35L533.73,69.59L534.05,105.68L535.01,60.63L535.33,64.9L535.66,63.58L535.98,43.19L537.26,141.84L537.58,81.74L537.9,79.48L538.22,67.71L538.54,59.25L538.86,74.94L539.19,67.97L539.51,83.76L540.79,63.05L541.11,74.57L541.43,66.14L542.07,68.44L542.4,78.19L542.72,91.03L543.04,64.35L543.36,61.25L543.68,82.58L544,51.39" style="vector-effect: non-scaling-stroke; fill: none; stroke: rgb(31, 119, 180); stroke-opacity: 1; stroke-width: 2px; opacity: 1;"/></g><g class="points"/><g class="text"/></g></g></g><g class="overplot"/><path class="xlines-above crisp" d="M0,0" style="fill: none;"/><path class="ylines-above crisp" d="M0,0" style="fill: none;"/><g class="overlines-above"/><g class="xaxislayer-above"><g class="xtick"><text text-anchor="middle" x="0" y="403" transform="translate(60,0)" style="font-family: 'Open Sans', verdana, arial, sans-serif; font-size: 12px; fill: rgb(68, 68, 68); fill-opacity: 1; white-space: pre;">0</text></g><g class="xtick"><text text-anchor="middle" x="0" y="403" transform="translate(220.47,0)" style="font-family: 'Open Sans', verdana, arial, sans-serif; font-size: 12px; fill: rgb(68, 68, 68); fill-opacity: 1; white-space: pre;">50k</text></g><g class="xtick"><text text-anchor="middle" x="0" y="403" transform="translate(380.94,0)" style="font-family: 'Open Sans', verdana, arial, sans-serif; font-size: 12px; fill: rgb(68, 68, 68); fill-opacity: 1; white-space: pre;">100k</text></g><g class="xtick"><text text-anchor="middle" x="0" y="403" transform="translate(541.4200000000001,0)" style="font-family: 'Open Sans', verdana, arial, sans-serif; font-size: 12px; fill: rgb(68, 68, 68); fill-opacity: 1; white-space: pre;">150k</text></g></g><g class="yaxislayer-above"><g class="ytick"><text text-anchor="end" x="59" y="4.199999999999999" transform="translate(0,386.25)" style="font-family: 'Open Sans', verdana, arial, sans-serif; font-size: 12px; fill: rgb(68, 68, 68); fill-opacity: 1; white-space: pre;">4.2</text></g><g class="ytick"><text text-anchor="end" x="59" y="4.199999999999999" transform="translate(0,330.1)" style="font-family: 'Open Sans', verdana, arial, sans-serif; font-size: 12px; fill: rgb(68, 68, 68); fill-opacity: 1; white-space: pre;">4.4</text></g><g class="ytick"><text text-anchor="end" x="59" y="4.199999999999999" transform="translate(0,273.95)" style="font-family: 'Open Sans', verdana, arial, sans-serif; font-size: 12px; fill: rgb(68, 68, 68); fill-opacity: 1; white-space: pre;">4.6</text></g><g class="ytick"><text text-anchor="end" x="59" y="4.199999999999999" transform="translate(0,217.8)" style="font-family: 'Open Sans', verdana, arial, sans-serif; font-size: 12px; fill: rgb(68, 68, 68); fill-opacity: 1; white-space: pre;">4.8</text></g><g class="ytick"><text text-anchor="end" x="59" y="4.199999999999999" transform="translate(0,161.65)" style="font-family: 'Open Sans', verdana, arial, sans-serif; font-size: 12px; fill: rgb(68, 68, 68); fill-opacity: 1; white-space: pre;">5</text></g><g class="ytick"><text text-anchor="end" x="59" y="4.199999999999999" transform="translate(0,105.5)" style="font-family: 'Open Sans', verdana, arial, sans-serif; font-size: 12px; fill: rgb(68, 68, 68); fill-opacity: 1; white-space: pre;">5.2</text></g></g><g class="overaxes-above"/></g></g><g class="polarlayer"/><g class="ternarylayer"/><g class="geolayer"/><g class="pielayer"/><g class="glimages"/><defs id="topdefs-eadb12"><g class="clips"/><clipPath id="legendeadb12"><rect width="73" height="29" x="0" y="0"/></clipPath></defs><g class="layer-above"><g class="imagelayer"/><g class="shapelayer"/></g><g class="infolayer"><g class="legend" pointer-events="all" transform="translate(614.88, 60)"><rect class="bg" shape-rendering="crispEdges" width="73" height="29" x="0" y="0" style="stroke: rgb(68, 68, 68); stroke-opacity: 1; fill: rgb(255, 255, 255); fill-opacity: 1; stroke-width: 0px;"/><g class="scrollbox" transform="translate(0, 0)" clip-path="url(#legendeadb12)"><g class="groups"><g class="traces" transform="translate(0, 14.5)" style="opacity: 1;"><g class="layers" style="opacity: 1;"><g class="legendfill"/><g class="legendlines"><path class="js-line" d="M5,0h30" style="fill: none; stroke: rgb(31, 119, 180); stroke-opacity: 1; stroke-width: 2px;"/></g><g class="legendsymbols"><g class="legendpoints"/></g></g><text class="legendtext user-select-none" text-anchor="start" x="40" y="4.680000000000001" style="font-family: 'Open Sans', verdana, arial, sans-serif; font-size: 12px; fill: rgb(68, 68, 68); fill-opacity: 1; white-space: pre;">train</text><rect class="legendtoggle" pointer-events="all" x="0" y="-9.5" width="113" height="19" style="cursor: pointer; fill: rgb(0, 0, 0); fill-opacity: 0;"/></g></g></g><rect class="scrollbar" rx="20" ry="3" width="0" height="0" x="0" y="0" style="fill: rgb(128, 139, 164); fill-opacity: 1;"/></g><g class="g-gtitle"><text class="gtitle" x="350" y="30" text-anchor="middle" dy="0em" style="font-family: 'Open Sans', verdana, arial, sans-serif; font-size: 17px; fill: rgb(68, 68, 68); opacity: 1; font-weight: normal; white-space: pre;">Loss</text></g><g class="g-xtitle"><text class="xtitle" x="332" y="442" text-anchor="middle" style="font-family: 'Open Sans', verdana, arial, sans-serif; font-size: 14px; fill: rgb(68, 68, 68); opacity: 1; font-weight: normal; white-space: pre;">batch</text></g><g class="g-ytitle"><text class="ytitle" transform="rotate(-90,22,225)" x="22" y="225" text-anchor="middle" style="font-family: 'Open Sans', verdana, arial, sans-serif; font-size: 14px; fill: rgb(68, 68, 68); opacity: 1; font-weight: normal; white-space: pre;">loss</text></g></g></svg>