<svg class="main-svg" xmlns="http://www.w3.org/2000/svg" xmlns:xlink="http://www.w3.org/1999/xlink" width="700" height="450" style="" viewBox="0 0 700 450"><rect x="0" y="0" width="700" height="450" style="fill: rgb(255, 255, 255); fill-opacity: 1;"/><defs id="defs-3e0e08"><g class="clips"><clipPath id="clip3e0e08xyplot" class="plotclip"><rect width="544" height="330"/></clipPath><clipPath class="axesclip" id="clip3e0e08x"><rect x="60" y="0" width="544" height="450"/></clipPath><clipPath class="axesclip" id="clip3e0e08y"><rect x="0" y="60" width="700" height="330"/></clipPath><clipPath class="axesclip" id="clip3e0e08xy"><rect x="60" y="60" width="544" height="330"/></clipPath></g><g class="gradients"/></defs><g class="bglayer"/><g class="layer-below"><g class="imagelayer"/><g class="shapelayer"/></g><g class="cartesianlayer"><g class="subplot xy"><g class="layer-subplot"><g class="shapelayer"/><g class="imagelayer"/></g><g class="gridlayer"><g class="x"><path class="xgrid crisp" transform="translate(226.97,0)" d="M0,60v330" style="stroke: rgb(238, 238, 238); stroke-opacity: 1; stroke-width: 1px;"/><path class="xgrid crisp" transform="translate(393.95,0)" d="M0,60v330" style="stroke: rgb(238, 238, 238); stroke-opacity: 1; stroke-width: 1px;"/><path class="xgrid crisp" transform="translate(560.9200000000001,0)" d="M0,60v330" style="stroke: rgb(238, 238, 238); stroke-opacity: 1; stroke-width: 1px;"/></g><g class="y"><path class="ygrid crisp" transform="translate(0,353.71)" d="M60,0h544" style="stroke: rgb(238, 238, 238); stroke-opacity: 1; stroke-width: 1px;"/><path class="ygrid crisp" transform="translate(0,317.53)" d="M60,0h544" style="stroke: rgb(238, 238, 238); stroke-opacity: 1; stroke-width: 1px;"/><path class="ygrid crisp" transform="translate(0,281.35)" d="M60,0h544" style="stroke: rgb(238, 238, 238); stroke-opacity: 1; stroke-width: 1px;"/><path class="ygrid crisp" transform="translate(0,245.17)" d="M60,0h544" style="stroke: rgb(238, 238, 238); stroke-opacity: 1; stroke-width: 1px;"/><path class="ygrid crisp" transform="translate(0,208.99)" d="M60,0h544" style="stroke: rgb(238, 238, 238); stroke-opacity: 1; stroke-width: 1px;"/><path class="ygrid crisp" transform="translate(0,172.81)" d="M60,0h544" style="stroke: rgb(238, 238, 238); stroke-opacity: 1; stroke-width: 1px;"/><path class="ygrid crisp" transform="translate(0,136.63)" d="M60,0h544" style="stroke: rgb(238, 238, 238); stroke-opacity: 1; stroke-width: 1px;"/><path class="ygrid crisp" transform="translate(0,100.44)" d="M60,0h544" style="stroke: rgb(238, 238, 238); stroke-opacity: 1; stroke-width: 1px;"/><path class="ygrid crisp" transform="translate(0,64.26)" d="M60,0h544" style="stroke: rgb(238, 238, 238); stroke-opacity: 1; stroke-width: 1px;"/></g></g><g class="zerolinelayer"><path class="xzl zl crisp" transform="translate(60,0)" d="M0,60v330" style="stroke: rgb(68, 68, 68); stroke-opacity: 1; stroke-width: 1px;"/></g><path class="xlines-below"/><path class="ylines-below"/><g class="overlines-below"/><g class="xaxislayer-below"/><g class="yaxislayer-below"/><g class="overaxes-below"/><g class="plot" transform="translate(60, 60)" clip-path="url(#clip3e0e08xyplot)"><g class="scatterlayer mlayer"><g class="trace scatter tracedea176" style="stroke-miterlimit: 2; opacity: 1;"><g class="fills"/><g class="errorbars"/><g class="lines"><path class="js-line" d="M0,54.02L1,66.41L1.34,63.29L2,79.42L2.34,73.33L2.67,70.69L3.01,86.08L3.34,64.67L3.67,97.51L4.01,59.63L4.34,88.99L4.68,72.1L5.68,111.01L6.01,65.75L6.34,67.64L6.68,75.76L7.01,97.16L7.35,75.15L7.68,88.99L8.35,110.02L8.68,79.18L9.02,65.69L9.35,83.63L9.68,81.92L10.02,82.8L10.35,68.22L11.35,116.33L11.69,66.59L12.02,99.37L12.36,96.54L12.69,83.1L13.69,99L14.03,97.14L14.36,106.59L14.69,77.71L15.03,91.01L15.36,69.37L16.36,97.65L16.7,83.18L17.03,88.28L17.37,118.66L19.03,62.88L19.37,94.65L20.04,89.79L20.37,90.99L20.7,96.15L21.04,138.12L21.37,83.41L22.37,113.96L22.71,86.35L23.04,150.31L23.38,88.94L23.71,90.37L24.71,120.09L25.05,108.43L26.05,69.14L26.38,80.73L26.72,75.05L27.05,85.43L27.72,95.16L28.05,119.57L28.72,84.54L29.05,93.09L29.39,86.44L29.72,110.39L30.06,65.4L30.39,101.73L31.06,95.75L31.39,75.57L32.39,126.65L32.73,81.27L33.06,102.91L33.39,64.15L34.4,129.87L34.73,53.88L35.06,110.54L35.4,76.09L35.73,76.96L36.4,112.52L36.73,85.56L37.07,116.06L37.4,93.66L37.74,89.55L38.07,112.11L38.4,109.67L38.74,68.66L39.07,98L39.41,93.7L39.74,87.58L40.07,86.82L40.41,79.89L40.74,100.93L41.08,93.93L41.41,88.77L41.74,109.47L42.08,75.81L42.75,95.39L43.08,85.94L43.41,142.68L43.75,95.03L44.08,97.08L44.41,102.52L44.75,94.87L45.08,100.83L45.42,125L45.75,121.08L46.08,91.41L46.42,109.2L46.75,89.04L47.09,90.91L47.42,89.63L47.75,94.18L48.09,86.53L48.42,86.65L48.76,92.99L49.09,107.78L49.42,84.65L49.76,107.3L50.09,97.97L50.43,72.18L51.43,113.08L51.76,85.54L52.43,93.41L52.76,72.36L53.1,143.21L53.43,69.73L53.77,101.93L54.1,95.63L54.43,109.09L54.77,103.35L55.1,68.74L55.44,108.42L55.77,106.27L56.1,91.79L56.44,126.82L56.77,81.58L57.44,98.94L57.77,94.44L58.11,83.17L58.44,101.76L58.77,91.7L59.11,80.23L60.78,103.06L61.11,82.86L61.45,89.72L61.78,118.97L62.11,117.72L62.45,105.69L63.12,70.61L63.45,83.72L63.78,78.93L64.45,151.04L64.79,87.2L65.12,84.46L65.45,101.56L65.79,102.16L66.12,98.56L66.46,87.89L66.79,88.53L67.12,101.32L67.46,88.82L67.79,98.13L68.13,92.32L68.46,108.29L68.79,97.05L69.13,93.63L69.46,94.91L69.79,118.75L70.13,119.55L70.46,82.96L71.13,118.88L71.46,81.65L71.8,120.52L72.13,102.61L72.47,98.09L72.8,117.05L73.13,100.08L73.47,75.03L73.8,121.48L74.14,107.08L74.47,60.47L75.81,118.35L76.14,135.64L76.47,115.09L76.81,151.92L77.81,99.76L78.14,101.74L78.48,113.15L78.81,88.05L79.15,96.62L79.48,149.23L80.15,98.99L80.48,103.64L80.82,100.41L81.15,87.19L81.48,96.49L81.82,112.46L82.15,67.08L82.48,116.64L82.82,81.26L84.15,120.91L84.49,127.33L84.82,107.18L85.16,122.19L85.49,130.56L85.82,82.35L86.16,100.73L86.49,108.33L86.83,88.58L87.16,104.14L87.49,103.55L87.83,78.48L88.16,84.91L88.5,109.98L88.83,70.8L89.16,106.41L89.5,113.79L90.17,78.23L90.5,119.29L91.17,90.44L91.5,102.42L91.84,117.89L92.17,89.83L92.5,78.54L92.84,95.47L93.51,108.46L93.84,145.03L94.17,82.26L94.51,103.04L94.84,114.67L95.17,86.75L95.51,92.24L95.84,96.95L96.18,98.99L96.51,122.72L97.51,84.58L97.85,88.23L98.18,93.25L98.85,108.81L99.18,105.38L99.52,94.71L99.85,117.93L100.18,84.32L100.52,114.86L100.85,92.71L101.19,82.21L101.85,113.29L102.19,101.35L102.52,96.26L102.86,109.91L103.19,103.31L103.52,100.09L103.86,65.74L104.19,102.12L104.53,130.76L104.86,85.35L105.19,105.01L105.53,97.99L105.86,103.19L106.2,94.35L106.53,71.77L106.86,105.31L107.86,69.85L108.2,93.42L108.53,111.4L108.87,72.74L109.2,108.35L109.87,103.07L110.2,90.25L110.54,102.24L110.87,98.93L111.2,92.31L111.54,90.15L111.87,96.33L112.21,99.51L112.54,96.51L112.87,121.3L113.21,95.41L113.54,101.77L113.88,104.39L114.21,97L114.54,106.02L114.88,80.78L116.21,103.1L116.55,71.63L116.88,68.58L117.22,113.56L117.55,88.05L117.88,111.09L118.22,104.87L118.55,111.91L118.89,107.27L119.22,100.08L119.55,112.75L119.89,101L120.22,96.48L120.55,105.96L120.89,103.75L121.22,87.71L121.89,124.04L122.22,82.3L122.56,123.75L123.23,119.58L123.56,89.78L124.23,98.78L124.56,118.75L124.9,84.9L125.56,86.63L125.9,85.25L126.23,119.37L126.9,115.85L127.23,105.45L127.57,109.9L127.9,104.52L128.24,94.1L128.57,121.47L128.9,97.56L129.24,81.21L129.57,104.87L130.24,102.5L130.57,103.02L130.91,97.8L131.24,116.36L132.58,52.2L132.91,84.96L133.24,113.03L133.58,72.99L134.25,120.82L134.58,114.51L134.91,102.3L135.25,77.98L135.58,127.84L135.92,140.08L136.25,125.66L136.58,132.16L136.92,99.44L137.25,99.81L137.59,128.86L138.25,135.3L138.59,78.76L138.92,89.52L139.59,86.62L139.92,130.4L140.26,96.1L140.93,121.99L141.26,92.5L141.59,99.36L141.93,85.07L142.26,81.41L142.6,61.66L143.6,123.96L143.93,114.59L144.27,125.42L144.6,95.03L144.93,89.74L145.27,98.28L145.93,76.72L146.27,87.2L146.6,120.17L147.27,77.25L147.6,114.38L148.27,123.95L148.61,131.7L149.27,90.32L149.61,121.48L150.61,89.63L150.94,99.56L151.28,96.43L151.61,133.52L152.95,75.1L153.28,90.18L153.62,95.97L153.95,88.99L154.28,156.09L155.29,87.39L155.62,108.85L155.95,79.44L156.62,84.98L156.96,115.33L157.29,90.31L157.96,91.65L158.29,105.6L158.62,154.8L158.96,95.11L159.29,101.23L159.63,147.61L159.96,103.85L160.29,93.64L160.63,121.39L160.96,94.44L161.3,95.64L161.63,94.71L161.96,117.72L162.63,95.31L162.97,121.81L163.97,100.32L164.3,84.69L164.64,103.34L165.3,100.72L165.64,102.45L165.97,92.06L166.31,113.6L166.97,79.65L167.31,135.18L167.64,86.46L167.98,93.45L168.31,140.08L168.98,97.11L169.31,128.92L170.31,76.3L170.65,115.09L171.31,83.66L171.65,111.46L172.98,90.79L173.32,92.97L173.65,106.13L173.99,84.16L174.65,94.16L174.99,92.3L175.32,80.07L175.66,84.22L175.99,121.8L176.66,88.43L176.99,100.6L177.33,82.56L177.66,112.18L178.33,85.53L178.66,92.73L179,139.31L179.66,89.59L180,101.5L180.33,93.32L180.67,92.95L181,81.58L181.33,120.49L181.67,98.69L182,81.5L182.34,86.56L182.67,109.7L183,90.23L183.34,102.62L183.67,104.47L184,99.56L184.34,125.73L185.34,89.15L185.67,88.12L186.01,86.57L186.34,133.26L186.68,123.66L187.01,133.08L187.34,86.83L188.01,118.96L188.35,100.7L188.68,92.57L189.01,124.32L189.68,86.67L190.02,116.22L191.02,70.2L191.35,109.2L191.69,86.91L192.02,100.49L192.35,130.66L193.02,67.2L193.36,118.33L195.03,79.21L195.36,118.12L196.03,99.46L196.36,109.12L196.69,112.56L197.03,142.07L197.36,90.2L198.03,99.65L198.36,95.07L199.03,99.32L199.37,95.32L200.03,115.33L200.37,93.33L201.04,109.76L201.37,85.25L201.7,128.42L202.04,80.16L202.37,78.18L202.71,143.74L203.04,89.76L203.37,92.43L203.71,94.34L204.04,82.36L204.38,113.16L204.71,108.59L205.04,96.32L205.38,129.24L205.71,108.28L206.05,81.15L206.38,106.35L206.71,102.15L207.05,86.07L207.38,95.92L207.72,90.47L208.05,88.71L208.38,101L208.72,70.71L209.72,109.3L210.05,124.88L211.05,96.77L211.39,106.48L211.72,102.95L212.06,111.95L212.39,77.32L213.06,79.29L213.39,122.58L214.39,86.82L214.73,102.17L215.06,147.44L215.4,81.24L216.4,125.89L216.73,96.53L217.07,80.57L217.4,96.32L217.73,102.92L218.74,114.48L219.07,83.11L219.74,111L220.07,108.66L220.41,111.65L220.74,110.32L221.07,100.67L221.41,104.2L221.74,100.72L222.07,112.03L222.41,85.15L222.74,102.4L223.08,125.5L223.41,132.49L223.74,104.79L224.08,80.95L224.41,109.73L224.75,108.06L225.08,115.31L225.41,104.84L225.75,126.87L226.08,90.81L226.42,86.97L226.75,109.28L227.42,89.8L227.75,120.14L228.42,89.3L228.75,105.14L229.09,105.23L229.42,96.31L229.76,99.2L230.09,111.96L230.42,135.92L230.76,120.14L231.09,92.99L231.43,109.38L231.76,56.58L232.43,155.23L232.76,109.28L233.1,104.12L233.43,81.1L233.76,126.24L234.76,81.6L235.1,99.87L235.43,112.75L235.77,92.37L236.1,73.42L236.43,99.12L236.77,94.31L237.1,100.93L237.77,117.62L238.1,104.96L238.44,98.78L238.77,114.96L239.11,85.33L239.44,86.03L239.77,107.19L240.11,138.32L240.44,133.42L240.78,88.33L241.11,115.12L241.44,94.65L241.78,102.04L242.11,127.43L242.78,123.61L243.11,85L243.45,122.89L244.12,114.54L244.45,119.76L245.12,101.25L245.45,108.08L245.79,133.08L246.12,62.95L246.45,94.17L246.79,101.13L247.12,101.43L247.45,94.36L247.79,112.31L248.12,101.19L248.46,90.82L248.79,69.54L249.12,87.73L249.46,108.56L249.79,77.07L250.13,84.34L250.46,100.21L250.79,84.91L251.13,87.71L251.46,103.62L252.13,74.86L252.46,98.86L252.8,111.73L253.13,89.86L253.8,95.34L254.13,115.04L254.8,94.56L255.14,117.54L255.47,81.28L255.8,94.48L256.14,113.26L256.47,80.32L256.81,92.3L257.14,128.22L257.81,95.91L258.14,99.01L258.48,120.64L258.81,94.68L259.14,125.04L259.48,110.62L259.81,133.13L260.14,108.98L260.48,91.72L261.15,88.74L261.48,118.89L261.81,103.36L262.15,79.53L262.48,98.4L262.82,101.51L263.15,116.02L263.48,85.11L264.15,96.18L264.49,146.78L264.82,100.61L265.15,129.12L265.49,118.76L265.82,99.64L266.16,111.44L266.49,110.11L266.82,92.54L267.16,113.92L267.49,116.97L268.49,86.86L268.83,101.38L269.16,118.88L269.5,71.74L269.83,98.24L270.16,97.19L270.5,83.07L270.83,118.24L271.17,110.8L271.5,94.16L272.17,98.64L272.5,115.91L272.83,102.08L273.17,127.85L273.5,130.84L273.84,96.11L274.84,128.32L275.17,117.44L275.51,73.27L276.17,83.74L276.51,139.19L276.84,144.07L277.18,94.55L277.51,93.61L277.84,106.93L278.18,126.37L278.51,93.16L278.85,86.48L279.18,135.61L279.51,86.7L279.85,87.07L280.18,123.82L280.52,76.19L281.18,81.17L281.52,110.59L281.85,92.64L282.19,108.58L282.52,126.85L283.19,83.53L283.52,84.19L283.86,72.23L284.52,148.91L284.86,111.78L285.19,93.64L285.52,123.41L286.19,89.17L286.53,127.92L287.19,97.65L287.53,103.71L287.86,87.09L288.2,102.19L288.53,82.69L288.86,106.76L289.53,105.07L289.87,101.57L290.2,80.27L290.53,103.5L290.87,104.55L291.2,150.72L291.54,99.68L291.87,95.62L292.2,104.18L292.54,81.5L292.87,135.84L293.21,92.91L293.54,96.03L293.87,123.99L294.21,100.08L294.54,79.49L295.88,128.32L296.21,108.83L296.88,86.14L297.21,104.89L297.88,89.72L298.21,92.14L298.55,92.77L298.88,78.49L299.22,119.8L299.55,119.09L299.88,100.98L300.22,129.26L300.55,113.59L300.89,204.86L301.55,101.57L301.89,106.18L302.22,104.24L302.56,96.93L302.89,115.25L303.56,84.75L303.89,122.25L304.89,87.4L305.23,105.71L305.56,125.38L305.9,105.51L306.23,124.72L306.56,92.65L306.9,109.38L307.23,105.57L307.57,95.42L307.9,90.32L308.23,104.58L308.57,95.78L308.9,97.03L309.24,105.18L309.57,187.7L309.9,54.8L311.57,119.11L311.91,86.36L312.24,108.22L312.57,103.44L312.91,93.32L313.91,123.08L314.24,105.93L314.58,118.71L314.91,104.77L315.25,108.16L315.91,141.2L316.25,111.89L316.58,103.15L316.92,110.52L317.25,106.4L317.58,106.35L317.92,88.84L318.59,110.25L318.92,89.64L319.25,121.76L319.59,101.35L319.92,103.41L320.26,107.35L320.59,127.17L320.92,128.52L321.26,92.65L321.93,102.16L322.26,126.25L322.93,96.01L323.26,123.53L323.59,99.65L324.26,103.33L324.6,105.78L324.93,97.99L325.26,120.98L325.93,98.99L326.27,121.67L326.6,74.35L326.93,107.79L327.27,97.53L327.6,87.43L327.94,111.54L328.27,113.24L328.6,84.9L328.94,113.65L329.27,83.84L329.61,107.29L329.94,76.66L330.27,109.97L330.94,109.07L331.28,91.68L331.94,82.72L332.28,103.14L333.28,111L333.61,100.16L333.95,87.67L334.28,105.79L334.62,96.14L334.95,116.77L335.62,96.85L335.95,105.99L336.28,132.05L337.29,74.73L337.62,131.97L337.95,153.83L338.29,78.04L338.96,115.13L339.29,97.05L339.96,107.57L340.29,164.1L340.96,88.16L341.29,95.11L341.63,87.24L341.96,76.91L342.3,94.28L342.63,94.18L342.96,133.94L343.3,94.93L343.97,100.72L344.3,100.89L345.3,78.51L345.64,99.62L346.64,77.6L346.97,109.54L347.31,87.36L347.64,110.65L347.97,110.62L348.31,110.94L348.64,65.25L349.64,118.49L349.98,107.72L350.98,127.8L351.31,114.98L351.65,88.1L351.98,103.44L352.31,99L352.98,118.38L353.32,104.66L353.65,111.56L353.98,83.74L354.65,121.17L354.99,101.54L355.32,113.91L355.65,99.4L355.99,108.24L356.32,93.95L356.99,95.34L357.32,107.93L357.66,104.54L357.99,120.77L358.33,117.3L358.66,89.99L358.99,126.4L359.33,118.17L359.66,111.55L360,83.99L360.33,114.54L360.66,110.75L362,88.2L362.33,96.1L362.67,120.96L363,106.9L363.33,100.66L363.67,120.99L364,107.71L364.34,107.57L364.67,81.08L365,99.4L365.34,90.05L365.67,104.34L366.34,103.25L366.67,107.33L367.01,119.98L367.68,119.78L368.01,97.42L368.68,137.18L369.01,107.12L369.35,111.14L369.68,103.89L370.35,85.83L370.68,92.51L371.02,120.42L371.35,77.27L371.68,105.63L372.02,88.03L372.35,85.38L373.69,127.82L374.02,115.4L374.35,81.17L374.69,107.96L375.02,100.43L375.36,133.08L375.69,130.94L376.02,97.62L376.36,118.35L376.69,106.99L377.03,75.4L377.36,102.69L377.69,91.64L378.03,94.36L378.36,89.33L378.7,114.02L379.03,85.67L379.36,108.17L379.7,93.76L380.37,24.63L380.7,94.69L381.03,117.57L381.37,66.91L381.7,123.17L382.04,86.54L382.37,81.05L382.7,135.63L383.04,79.18L383.37,129.87L383.71,123.13L384.04,71.95L384.37,103.35L384.71,87.72L385.38,136.52L385.71,109.34L386.04,106.05L386.38,114.87L386.71,87.78L387.38,106.13L387.71,100.59L388.05,69.3L388.71,140.8L389.05,101.88L389.38,113.34L389.72,77.46L390.05,125.25L390.38,106.31L390.72,103.74L391.39,85.27L391.72,85.29L392.05,92.66L392.39,92.35L392.72,118.29L393.39,83.2L393.72,86.93L394.06,95.73L394.39,220.81L394.73,90.97L395.06,105.28L396.06,92.2L396.4,106L396.73,92.19L397.06,120.92L397.73,85.35L398.07,99.42L398.4,102.48L399.07,152.05L399.4,125.12L399.73,149.77L400.07,98.9L400.74,131.3L401.07,124.11L401.4,71.28L401.74,107.05L402.41,101.68L402.74,119.84L403.07,114.62L403.41,89.23L403.74,120.21L404.08,103.89L404.41,98.12L404.74,106.86L405.08,89.84L405.41,99.21L405.75,87.36L407.08,129.75L407.42,87.37L407.75,115.12L408.08,89.68L408.42,99.1L408.75,90.45L409.09,102.68L409.42,119.44L409.75,112.72L410.09,109.57L410.42,109.98L410.76,85.22L411.42,103.98L411.76,97.18L412.09,84.92L413.09,137.02L413.43,114.75L413.76,85.9L414.09,114.98L414.43,100.44L414.76,131.53L415.1,94.83L415.43,82.55L415.76,115.22L416.1,67.89L416.77,125.42L417.1,16.5L417.43,112.72L418.1,101.66L418.44,100.9L418.77,99.22L419.1,92.34L419.44,94.45L419.77,102.48L420.11,73.2L420.44,109.86L420.77,80.3L421.11,99.74L421.44,121.9L422.11,89.81L422.44,113.07L422.78,108.21L423.11,113.74L423.45,48.25L424.45,122.06L424.78,89.85L425.78,129.26L426.12,91.4L426.45,70.14L426.78,104.87L427.45,99.96L427.79,135.75L428.12,84.59L428.45,57.18L428.79,75.09L429.12,109.24L429.46,103.35L429.79,83.4L430.12,104.33L430.46,101.55L430.79,66.34L431.79,123.88L432.13,105.85L432.8,110.74L433.13,75.89L433.8,83.53L434.13,101.34L434.47,121.16L434.8,89.37L435.13,114.48L435.47,105.52L435.8,95.25L436.14,94.67L436.47,109.64L436.8,152.27L437.14,78.76L437.47,127.45L437.8,85.86L438.14,111.79L438.47,86.92L439.14,89.1L439.47,87.87L440.48,129.24L440.81,114.43L441.14,111.28L441.48,116.18L441.81,95.94L442.15,117.74L442.48,109.01L442.81,110.01L443.15,100.75L443.48,106.61L443.82,128.74L445.15,90.96L445.49,94.87L445.82,92.77L446.15,94.7L446.49,82.57L447.16,120.08L447.49,84.97L447.82,134.39L448.16,122.43L448.49,80.3L449.16,79.37L449.83,109.55L450.16,110.97L450.49,190.97L450.83,85.08L451.83,119.31L452.16,76.85L452.5,78.94L452.83,97.21L453.17,93.55L453.5,114.46L454.17,97.07L454.5,123.5L455.17,95.37L455.5,125.33L455.84,124.15L456.17,118.33L456.51,215.44L456.84,99.06L457.17,94.87L457.51,87.96L457.84,87.98L458.18,97.94L458.51,74.87L458.84,91.94L459.18,101.6L459.51,73.34L459.85,123L460.18,72.84L460.51,91.16L460.85,125.19L461.18,90.93L461.85,93.18L462.18,111.29L462.52,79.6L462.85,112.49L463.18,97.72L463.52,94.92L463.85,147.16L464.85,77.98L465.19,115.63L466.19,76.33L466.52,109.16L466.86,120.14L467.19,106.49L467.53,84.59L467.86,112.31L468.53,134.47L468.86,96.53L469.53,125.78L469.86,80.77L470.87,113.11L471.2,103.64L471.53,101.46L471.87,112.43L472.87,71.38L473.2,102.64L473.54,131.9L473.87,99.49L474.21,95.75L474.54,87.68L474.87,114.78L475.21,112.33L475.54,94.85L476.21,138.73L476.54,105.11L476.88,113.83L477.21,79.32L477.54,308.54L477.88,82.72L478.21,86.72L479.21,103.15L479.55,77.99L480.55,142.86L480.88,106.85L481.22,105.06L481.55,74.13L482.55,115.22L482.89,91.92L483.56,138.21L483.89,112.44L484.22,88.8L484.89,91.21L485.23,97.27L485.56,97.38L485.89,101.77L486.23,103.34L486.56,84.52L486.9,118.66L487.23,107.3L487.56,94.68L487.9,90.9L488.23,110.56L488.9,123.6L489.23,99.12L489.9,126.22L490.23,104.19L491.24,125.3L491.57,101.76L491.9,100.97L492.24,115.16L492.57,103.59L492.91,147.03L493.57,92.23L493.91,233.09L494.58,109.8L494.91,111.69L495.24,101.81L495.58,83.72L495.91,102.95L496.25,131.23L497.92,85.16L498.25,114.49L498.92,77.02L499.25,105.36L499.59,81.57L499.92,94.33L500.25,98.16L500.92,120.63L501.25,101.49L502.26,90.02L502.59,98.12L503.59,122.61L503.93,82.09L505.26,144.24L505.6,130.1L505.93,190.35L506.26,110.82L506.6,182.18L506.93,111.99L507.27,109.02L507.6,81.1L507.93,99.5L508.27,92.03L508.6,114.73L508.94,104.69L509.27,92.63L510.27,118.82L510.61,111.8L510.94,101.52L511.27,120.61L511.61,213.67L511.94,97.64L512.28,313.5L512.94,81.36L513.28,119.53L513.61,81.23L513.94,117.93L514.28,103.72L514.61,107.82L515.28,88.63L515.61,125.05L516.62,100.39L516.95,105.76L517.62,95.55L517.95,116.45L518.29,117.82L518.62,122.56L519.29,100.93L519.62,121L519.96,91.51L520.29,120.1L520.62,112.76L520.96,124.68L521.29,118.29L521.63,120.74L521.96,125.78L522.29,123.54L522.63,109.4L522.96,147.28L523.3,123.13L523.63,117.55L523.96,130.07L524.3,107.53L525.3,79.57L525.63,93.98L526.3,120.64L526.63,98.74L527.3,142.6L527.64,115.06L528.64,86.38L528.97,112.89L529.97,86.74L530.31,110.48L530.98,119.67L531.31,111.65L531.64,111.06L531.98,123.15L532.31,83.2L532.65,95.85L532.98,98.59L533.65,106.86L533.98,97.6L534.32,109.7L534.65,107.18L534.98,87.92L535.32,80L535.65,119.57L535.99,97.35L536.32,121.92L536.65,100.1L536.99,108.77L537.32,116.06L537.66,100.11L538.32,110.5L538.66,118.37L539.99,110.03L540.33,115.84L540.66,98.75L540.99,113.24L541.33,104.83L541.66,107.07L542,100.14L542.33,101.37L542.66,122.35L543.33,124.21L543.67,63.5L544,108.22" style="vector-effect: non-scaling-stroke; fill: none; stroke: rgb(31, 119, 180); stroke-opacity: 1; stroke-width: 2px; opacity: 1;"/></g><g class="points"/><g class="text"/></g></g></g><g class="overplot"/><path class="xlines-above crisp" d="M0,0" style="fill: none;"/><path class="ylines-above crisp" d="M0,0" style="fill: none;"/><g class="overlines-above"/><g class="xaxislayer-above"><g class="xtick"><text text-anchor="middle" x="0" y="403" transform="translate(60,0)" style="font-family: 'Open Sans', verdana, arial, sans-serif; font-size: 12px; fill: rgb(68, 68, 68); fill-opacity: 1; white-space: pre;">0</text></g><g class="xtick"><text text-anchor="middle" x="0" y="403" transform="translate(226.97,0)" style="font-family: 'Open Sans', verdana, arial, sans-serif; font-size: 12px; fill: rgb(68, 68, 68); fill-opacity: 1; white-space: pre;">50k</text></g><g class="xtick"><text text-anchor="middle" x="0" y="403" transform="translate(393.95,0)" style="font-family: 'Open Sans', verdana, arial, sans-serif; font-size: 12px; fill: rgb(68, 68, 68); fill-opacity: 1; white-space: pre;">100k</text></g><g class="xtick"><text text-anchor="middle" x="0" y="403" transform="translate(560.9200000000001,0)" style="font-family: 'Open Sans', verdana, arial, sans-serif; font-size: 12px; fill: rgb(68, 68, 68); fill-opacity: 1; white-space: pre;">150k</text></g></g><g class="yaxislayer-above"><g class="ytick"><text text-anchor="end" x="59" y="4.199999999999999" transform="translate(0,389.89)" style="font-family: 'Open Sans', verdana, arial, sans-serif; font-size: 12px; fill: rgb(68, 68, 68); fill-opacity: 1; white-space: pre;">1.5</text></g><g class="ytick"><text text-anchor="end" x="59" y="4.199999999999999" transform="translate(0,353.71)" style="font-family: 'Open Sans', verdana, arial, sans-serif; font-size: 12px; fill: rgb(68, 68, 68); fill-opacity: 1; white-space: pre;">2</text></g><g class="ytick"><text text-anchor="end" x="59" y="4.199999999999999" transform="translate(0,317.53)" style="font-family: 'Open Sans', verdana, arial, sans-serif; font-size: 12px; fill: rgb(68, 68, 68); fill-opacity: 1; white-space: pre;">2.5</text></g><g class="ytick"><text text-anchor="end" x="59" y="4.199999999999999" transform="translate(0,281.35)" style="font-family: 'Open Sans', verdana, arial, sans-serif; font-size: 12px; fill: rgb(68, 68, 68); fill-opacity: 1; white-space: pre;">3</text></g><g class="ytick"><text text-anchor="end" x="59" y="4.199999999999999" transform="translate(0,245.17)" style="font-family: 'Open Sans', verdana, arial, sans-serif; font-size: 12px; fill: rgb(68, 68, 68); fill-opacity: 1; white-space: pre;">3.5</text></g><g class="ytick"><text text-anchor="end" x="59" y="4.199999999999999" transform="translate(0,208.99)" style="font-family: 'Open Sans', verdana, arial, sans-serif; font-size: 12px; fill: rgb(68, 68, 68); fill-opacity: 1; white-space: pre;">4</text></g><g class="ytick"><text text-anchor="end" x="59" y="4.199999999999999" transform="translate(0,172.81)" style="font-family: 'Open Sans', verdana, arial, sans-serif; font-size: 12px; fill: rgb(68, 68, 68); fill-opacity: 1; white-space: pre;">4.5</text></g><g class="ytick"><text text-anchor="end" x="59" y="4.199999999999999" transform="translate(0,136.63)" style="font-family: 'Open Sans', verdana, arial, sans-serif; font-size: 12px; fill: rgb(68, 68, 68); fill-opacity: 1; white-space: pre;">5</text></g><g class="ytick"><text text-anchor="end" x="59" y="4.199999999999999" transform="translate(0,100.44)" style="font-family: 'Open Sans', verdana, arial, sans-serif; font-size: 12px; fill: rgb(68, 68, 68); fill-opacity: 1; white-space: pre;">5.5</text></g><g class="ytick"><text text-anchor="end" x="59" y="4.199999999999999" transform="translate(0,64.26)" style="font-family: 'Open Sans', verdana, arial, sans-serif; font-size: 12px; fill: rgb(68, 68, 68); fill-opacity: 1; white-space: pre;">6</text></g></g><g class="overaxes-above"/></g></g><g class="polarlayer"/><g class="ternarylayer"/><g class="geolayer"/><g class="pielayer"/><g class="glimages"/><defs id="topdefs-3e0e08"><g class="clips"/><clipPath id="legend3e0e08"><rect width="73" height="29" x="0" y="0"/></clipPath></defs><g class="layer-above"><g class="imagelayer"/><g class="shapelayer"/></g><g class="infolayer"><g class="legend" pointer-events="all" transform="translate(614.88, 60)"><rect class="bg" shape-rendering="crispEdges" width="73" height="29" x="0" y="0" style="stroke: rgb(68, 68, 68); stroke-opacity: 1; fill: rgb(255, 255, 255); fill-opacity: 1; stroke-width: 0px;"/><g class="scrollbox" transform="translate(0, 0)" clip-path="url(#legend3e0e08)"><g class="groups"><g class="traces" transform="translate(0, 14.5)" style="opacity: 1;"><g class="layers" style="opacity: 1;"><g class="legendfill"/><g class="legendlines"><path class="js-line" d="M5,0h30" style="fill: none; stroke: rgb(31, 119, 180); stroke-opacity: 1; stroke-width: 2px;"/></g><g class="legendsymbols"><g class="legendpoints"/></g></g><text class="legendtext user-select-none" text-anchor="start" x="40" y="4.680000000000001" style="font-family: 'Open Sans', verdana, arial, sans-serif; font-size: 12px; fill: rgb(68, 68, 68); fill-opacity: 1; white-space: pre;">train</text><rect class="legendtoggle" pointer-events="all" x="0" y="-9.5" width="113" height="19" style="cursor: pointer; fill: rgb(0, 0, 0); fill-opacity: 0;"/></g></g></g><rect class="scrollbar" rx="20" ry="3" width="0" height="0" x="0" y="0" style="fill: rgb(128, 139, 164); fill-opacity: 1;"/></g><g class="g-gtitle"><text class="gtitle" x="350" y="30" text-anchor="middle" dy="0em" style="font-family: 'Open Sans', verdana, arial, sans-serif; font-size: 17px; fill: rgb(68, 68, 68); opacity: 1; font-weight: normal; white-space: pre;">Run: 06-07-22-27-39 Loss</text></g><g class="g-xtitle"><text class="xtitle" x="332" y="442" text-anchor="middle" style="font-family: 'Open Sans', verdana, arial, sans-serif; font-size: 14px; fill: rgb(68, 68, 68); opacity: 1; font-weight: normal; white-space: pre;">batch</text></g><g class="g-ytitle"><text class="ytitle" transform="rotate(-90,22,225)" x="22" y="225" text-anchor="middle" style="font-family: 'Open Sans', verdana, arial, sans-serif; font-size: 14px; fill: rgb(68, 68, 68); opacity: 1; font-weight: normal; white-space: pre;">loss</text></g></g></svg>